<svg width="265" height="184" fill="none" xmlns="http://www.w3.org/2000/svg"><path d="M259.413 111.989c-.576.471-1.156.937-1.74 1.397-.297.234-.594.468-.895.702a146.5112 146.5112 0 0 1-12.9 8.97c-.366.23-.739.457-1.108.678a139.9269 139.9269 0 0 1-7.037 4.009c-.391.21-.784.417-1.178.62a138.0482 138.0482 0 0 1-13.715 6.24c-.525.207-1.053.41-1.578.602-.815.31-1.63.606-2.448.895-.021-.072-.211-1.005-.328-1.58-.049-.24-.087-.416-.094-.447-.051-.217-.11-.437-.172-.657-.84-3.05-2.026-5.993-3.536-8.774a38.9622 38.9622 0 0 0-2.037-3.355c-.235-.352-.48-.699-.732-1.04a27.3453 27.3453 0 0 0-3.692-4.134c-.78-.718-1.623-1.364-2.52-1.93-.489-.303-1.002-.566-1.533-.785-.321-.133-.65-.245-.984-.338-.045.183-.09.365-.138.548-.09.371-.187.74-.287 1.111-.608 2.307-1.323 4.626-2.134 6.939-.131.382-.269.761-.407 1.143a96.6211 96.6211 0 0 1-5.532 12.387c-.211.403-.428.802-.649 1.198a83.9576 83.9576 0 0 1-6.271 9.744 57.9143 57.9143 0 0 1-3.152 3.848c-.325.368-.66.733-.998 1.091a51.9783 51.9783 0 0 1-7.742 6.773c-.404.286-.811.568-1.222.84-4.641 3.074-9.789 5.28-15.286 6.185-8.198 1.353-16.633-.234-24.506-2.877-14.62-4.908-27.876-13.63-38.373-24.892-.2831-.303-.5663-.609-.8425-.919a93.0365 93.0365 0 0 1-5.0966-6.105c-.2279-.3-.4558-.603-.6767-.906a90.3479 90.3479 0 0 1-6.571-10.136c-.1727-.303-.3384-.609-.5076-.915a88.9592 88.9592 0 0 1-3.232-6.595 61.6465 61.6465 0 0 1-1.0877-2.623c-.1277-.32-.2486-.643-.3695-.967a40.7546 40.7546 0 0 1-1.6159-5.445c-.076-.351-.1451-.702-.2072-1.053-.8218-4.5571-.5525-9.1278 1.7057-13.5231.2279-.4405.4731-.8811.7424-1.3182a19.824 19.824 0 0 1 .3626-.5714c2.0165-3.0701 4.6684-5.6411 7.5689-7.9265.6353-.5025 1.2845-.9878 1.9406-1.4628.8494-.6161 1.7161-1.215 2.5828-1.7967 3.1698-2.1236 6.5054-4.2025 9.9756-6.2022.732-.4268 1.4711-.8478 2.2171-1.2631a182.3079 182.3079 0 0 1 16.94-8.3431c.577-.2478 1.157-.4922 1.74-.7331a158.6103 158.6103 0 0 1 15.4-5.5207c.605-.1824 1.209-.3614 1.813-.5301 3.522-1.0084 7.048-1.8655 10.577-2.571.58-.1136 1.156-.2238 1.737-.3305a101.0755 101.0755 0 0 1 15.614-1.6727c9.603-.2375 19.33.5163 28.687 2.726a59.3545 59.3545 0 0 1 18.487 8.0642c.439.2857.87.5748 1.299.8742a56.3744 56.3744 0 0 1 2.914 2.1443 80.6625 80.6625 0 0 1 6.129 5.507c.121.1135.242.2306.362.3476l.625.6023c2.925 2.8258 5.851 5.6492 8.778 8.4704.452.4371.908.8742 1.36 1.3113.311.3029.622.6024.933.9018.31.2995 5.645 5.6412 10.555 11.1619.422.4716.837.9431 1.247 1.4146a76.637 76.637 0 0 1 5.355 6.7357c1.085 1.5971 2.203 3.4559 3.274 5.3999.286.517.57 1.043.846 1.57 1.281 2.426 2.455 4.901 3.363 7.087Z" fill="#8BF5AF"/><path d="M194.461 19.6671c-1.978-5.7744-5.557-9.6943-9.82-10.755-.421-.1033-.851-.2152-1.29-.328-4.26-1.096-9.089-2.3378-13.167-.3852-5.036 2.4093-6.677 9.6299-7.764 14.4076l-.042.1876c-.102.4444-.2.8941-.294 1.3491-1.115 5.3642-1.274 9.5278-.502 13.1025a15.69 15.69 0 0 0 2.52 5.7799c.23.3276 1.708 1.7305 2.155 2.1529.896.8446 1.41 1.3206 1.73 1.5832-.087.3707-.2.7703-.345 1.2325-.089.2871-.225.632-.368.9982-.483 1.2356-1.088 2.7734-.658 3.9361.48 1.301 2.284 2.1339 3.151 2.5356 3.317 1.5337 6.969 2.3965 10.032 2.3965.428 0 .844-.0168 1.246-.0509.276-.0234.577-.0437.894-.065 2.617-.1759 6.201-.4169 7.434-2.9549.504-1.0384.493-2.4547.481-3.8246a16.1603 16.1603 0 0 1 .043-1.7467c.023-.2137.029-.5448.039-.9637.017-.7823.062-2.8609.377-3.171a13.797 13.797 0 0 0 4.835-7.5851 32.2815 32.2815 0 0 0-.687-17.8316Z" fill="#939393"/><path d="M173.954 38.3056a.8566.8566 0 0 0-.491.0655.8547.8547 0 0 0-.371.3261.8523.8523 0 0 0-.127.4767.8452.8452 0 0 0 .161.4666.8481.8481 0 0 0 .393.2992.856.856 0 0 0 .494.0311.8472.8472 0 0 0 .427-.2477.8478.8478 0 0 0 .218-.4428.8489.8489 0 0 0-.15-.6327.8512.8512 0 0 0-.554-.342ZM174.801 31.7698c-.385.191-2.025-.3545-2.356-.8712-.43-.6711.027-1.5619.55-2.1208.151-.1625.301-.3098.445-.455a4.909 4.909 0 0 0 1.469-2.1925 8.7322 8.7322 0 0 0 .237-2.7283c-.006-.336-.013-.6832-.003-1.0178a.5186.5186 0 0 0-.034-.1987.5093.5093 0 0 0-.108-.1707.5075.5075 0 0 0-.164-.1167.5193.5193 0 0 0-.568.0958.5107.5107 0 0 0-.117.1642.513.513 0 0 0-.045.1965c-.011.3593-.004.7193.003 1.067a7.8277 7.8277 0 0 1-.194 2.4117c-.236.7858-.666 1.2156-1.211 1.7598-.151.1518-.309.3098-.469.4819-.775.8291-1.416 2.2113-.666 3.3805.445.6932 1.94 1.3747 3.005 1.3747.236.0078.471-.0384.687-.1349a.5352.5352 0 0 0 .162-.1227.5171.5171 0 0 0 .101-.1752.5257.5257 0 0 0 .027-.2006.5312.5312 0 0 0-.053-.1954.5207.5207 0 0 0-.125-.16.508.508 0 0 0-.176-.1001.5178.5178 0 0 0-.397.0295v-.001ZM180.339 23.0901a.8621.8621 0 0 0-.494.0827.8628.8628 0 0 0-.365.3424.8633.8633 0 0 0-.113.4868.864.864 0 0 0 .178.467.8604.8604 0 0 0 .408.29.8666.8666 0 0 0 .501.0151.8617.8617 0 0 0 .631-.7203.8805.8805 0 0 0-.023-.3351.871.871 0 0 0-.15-.3008.8648.8648 0 0 0-.573-.3278ZM169.974 22.0445a.8677.8677 0 0 0-.495.0828.8616.8616 0 0 0-.365.3424.8626.8626 0 0 0-.112.4868.8565.8565 0 0 0 .178.467.8609.8609 0 0 0 .408.2899.8657.8657 0 0 0 .501.0151.8704.8704 0 0 0 .425-.2648.8609.8609 0 0 0 .205-.4555.8418.8418 0 0 0-.023-.335.852.852 0 0 0-.149-.3009.8787.8787 0 0 0-.254-.2207.8725.8725 0 0 0-.319-.1071Z" fill="#2A3439"/><path d="M196.591 114.563c1.467-.323 2.952-.657 4.457-.953-.089.371-.186.74-.286 1.111-1.33.269-2.642.561-3.943.847-4.058.905-8.25 1.838-12.687 1.996-11.712.427-21.674-5.231-31.297-10.697-4.962-2.819-10.09-5.731-15.369-7.744-18.277-6.9766-43.5009-5.9269-61.332 2.55a51.516 51.516 0 0 0-1.6436.816c-.076-.351-.145-.702-.2072-1.053.4604-.234.9289-.465 1.4054-.692 18.0693-8.5942 43.6244-9.6577 62.1494-2.5882 5.349 2.0442 10.515 4.9772 15.508 7.8132 9.499 5.397 19.326 10.976 30.748 10.563 4.344-.155 8.488-1.077 12.497-1.969ZM243.878 123.058c-.366.23-.739.457-1.108.678-3.743-1.436-7.469-3.002-11.198-4.619-7.017-3.046-13.094-5.676-21.754-5.518-2.05.05-4.093.245-6.115.585-.489-.302-1.001-.565-1.533-.784 2.515-.486 5.066-.764 7.628-.833 8.915-.162 15.058 2.509 22.188 5.603 3.961 1.718 7.914 3.38 11.892 4.888Z" fill="#fff"/><path d="M195.934 122.252c.891-.199 1.788-.399 2.693-.592-.131.382-.269.761-.407 1.143-.691.148-1.378.303-2.062.454-4.054.902-8.246 1.838-12.683 1.997-11.716.43-21.674-5.232-31.297-10.698-4.962-2.819-10.093-5.73-15.369-7.747-17.939-6.8428-42.5686-5.958-60.3341 2.092-.1277-.32-.2486-.643-.3694-.967 17.9968-8.133 42.9135-9.021 61.0725-2.089 5.352 2.044 10.518 4.977 15.511 7.813 9.499 5.397 19.323 10.976 30.748 10.563 4.341-.155 8.488-1.077 12.497-1.969ZM235.734 127.745c-.39.21-.784.417-1.178.62a386.277 386.277 0 0 1-3.639-1.559c-6.609-2.871-12.372-5.376-20.269-5.518-.235-.351-.48-.698-.732-1.039 8.498.014 14.492 2.606 21.412 5.61 1.467.637 2.936 1.266 4.406 1.886Z" fill="#fff"/><path d="M182.374 136.684c3.56-.131 6.986-.774 10.314-1.494-.21.403-.428.802-.649 1.198a56.5883 56.5883 0 0 1-9.627 1.328c-11.723.427-21.674-5.231-31.301-10.7-4.958-2.816-10.089-5.731-15.366-7.744-16.032-6.12-37.3987-6.065-54.4425-.238-.1726-.303-.3384-.609-.5076-.915 17.2925-5.955 39.0291-6.031 55.3201.189 5.352 2.041 10.514 4.973 15.511 7.813 9.499 5.393 19.322 10.972 30.748 10.563ZM220.841 134.605c-.525.206-1.053.409-1.578.602-.908-.258-1.83-.489-2.776-.685-.049-.241-.087-.416-.094-.447-.051-.217-.11-.437-.172-.658 1.561.308 3.104.705 4.62 1.188ZM182.615 149.98c-.324.368-.659.733-.997 1.091-.118.007-.232.013-.349.017-11.713.43-21.674-5.232-31.298-10.697-4.962-2.819-10.093-5.731-15.369-7.748-13.491-5.145-30.762-5.923-46.0522-2.568a53.742 53.742 0 0 1-.6768-.905c15.601-3.51 33.3-2.757 47.098 2.509 5.353 2.045 10.518 4.977 15.511 7.813 9.499 5.397 19.323 10.976 30.749 10.563.463-.017.925-.041 1.384-.075Z" fill="#fff"/><path d="M173.876 157.844c-.404.286-.811.568-1.222.84-8.422-1.583-16.001-5.892-23.387-10.088-4.959-2.815-10.09-5.731-15.366-7.744-11.567-4.416-25.918-5.617-39.412-3.752-.2831-.303-.5663-.609-.8425-.919 13.8735-2.027 28.7045-.843 40.6245 3.707 5.352 2.041 10.517 4.974 15.51 7.813 7.604 4.316 15.418 8.753 24.095 10.143ZM257.673 113.386c-.297.234-.594.468-.894.702-6.796-3.462-13.833-6.725-21.378-8.284-10.283-2.004-19.84-.72-29.961.643-4.375.589-8.902 1.198-13.46 1.511-16.035.355-30.659-6.749-44.805-13.6192-17.738-8.9592-39.036-12.3872-58.4418-9.41a81.964 81.964 0 0 0-12.7449 2.984c.2279-.4405.473-.8811.7424-1.3182A83.267 83.267 0 0 1 88.5778 83.91c19.6092-3.0082 41.1382.4543 59.0592 9.5029 13.688 6.6501 27.842 13.5261 43.162 13.5261.38 0 .757-.003 1.133-.013 4.503-.307 9.009-.916 13.37-1.501 9.758-1.315 19.847-2.674 30.303-.633 7.835 1.617 15.079 5.018 22.068 8.594Z" fill="#fff"/><path d="M256.05 104.902c-6.022-2.981-12.255-5.6621-18.877-7.0319-10.283-2.0066-19.845-.7194-29.962.6436-4.378.5885-8.901 1.1977-13.459 1.5113-16.026.354-30.659-6.7498-44.806-13.6197-17.738-8.9592-39.039-12.3872-58.4415-9.41-1.9923.3063-3.9398.6734-5.8424 1.1013.6354-.5025 1.2845-.9878 1.9406-1.4627a85.7869 85.7869 0 0 1 3.743-.6574c19.6133-3.0117 41.1423.4543 59.0633 9.5029 14.026 6.8149 28.538 13.8672 44.294 13.5127 4.503-.3063 9.009-.9155 13.367-1.5007 9.761-1.3147 19.851-2.6743 30.306-.6332 6.261 1.2941 12.148 3.7238 17.828 6.4738.287.517.57 1.043.846 1.57ZM223.703 67.9364c-4.934.3166-9.841 1.0532-14.886 1.8104-4.361.6539-8.87 1.3285-13.421 1.7071-.65.0241-1.302.0379-1.948.0379-15.269 0-29.409-6.6015-43.107-12.993a95.815 95.815 0 0 0-14.882-5.7238c.604-.1824 1.209-.3614 1.813-.53a95.5764 95.5764 0 0 1 13.515 5.3211c14.157 6.6083 28.801 13.4438 44.546 12.8587 4.493-.3752 8.985-1.0497 13.329-1.7002 4.603-.6919 9.285-1.394 14.053-1.7382.121.1136.242.2306.363.3476l.625.6024Z" fill="#fff"/><path d="M246.576 91.1964c-1.36-.3958-2.738-.7469-4.133-1.036-10.28-2.0169-19.841-.7434-29.965.6023-4.378.5817-8.902 1.184-13.463 1.4904-.363.0068-.725.0103-1.088.0103-15.611 0-29.878-6.9594-43.69-13.6951-16.709-8.4704-36.591-12.0258-55.0749-9.9332.732-.4268 1.4709-.8479 2.2169-1.2632 18.014-1.5695 37.143 2.072 53.321 10.274 14.012 6.832 28.5 13.8981 44.27 13.5746 4.503-.2994 9.009-.9018 13.37-1.48 9.761-1.301 19.854-2.6433 30.31-.592.901.1859 1.792.3993 2.68.6333.421.4715.836.9431 1.246 1.4146Z" fill="#fff"/><path d="M233.841 77.7181a45.3639 45.3639 0 0 0-.981-.1961c-10.317-1.8518-19.841-.4234-29.927 1.0876-4.361.6574-8.87 1.332-13.421 1.7106-16.015.5954-30.78-6.2917-45.055-12.9551a98.3481 98.3481 0 0 0-26.139-8.3362c.577-.2478 1.157-.4922 1.741-.7331a98.9768 98.9768 0 0 1 24.844 8.1365c14.157 6.6084 28.801 13.4439 44.546 12.8588 4.493-.3752 8.985-1.0498 13.329-1.7003 9.551-1.4318 19.416-2.9153 29.702-1.184.453.4371.908.8742 1.361 1.3113ZM213.672 59.3352c-2.728.3373-5.47.7503-8.253 1.1668-4.361.6539-8.867 1.3285-13.418 1.7106-.653.0241-1.302.0344-1.948.0344-14.934 0-28.791-6.3158-42.205-12.5731.58-.1136 1.156-.2237 1.736-.3304 13.477 6.2711 27.417 12.3907 42.355 11.8365 4.492-.3751 8.984-1.0497 13.328-1.7002 2.348-.3511 4.717-.7091 7.106-1.0188.439.2857.87.5748 1.299.8742Z" fill="#fff"/><path d="M181.734 182.037c1.564-.229 3.342-.672 4.037-2.088.315-.775.396-1.625.231-2.445-.585-4.337-3.757-9.971-5.637-13.929-21.323-44.871-44.004-89.0658-68.042-132.5855-3.024-5.475-6.842-11.5154-13.013-12.624-9.5322-1.712-16.3691 9.1333-21.0948 15.6755-7.7937 10.7899-64.7293 114.643-67.6491 119.512-3.7468 6.247-20.1557 31.503-2.616 30.303 8.9791-.614 150.4849 1.592 173.7839-1.819Z" fill="#2A3439"/><path d="M103.179 89.2792c-.11-6.4806.352-16.262-3.083-22.0743-1.9509-3.2997-6.5709-3.7691-8.498-.2113-1.9851 3.6659-.8557 11.9305-1.0307 16.0955a519.5914 519.5914 0 0 0-.2355 6.505 552.7987 552.7987 0 0 0-.2535 16.3179c-.0038 5.285-1.945 13.955.9278 18.627.2906.511.6871.954 1.163 1.3.8926.6 2.0718.63 3.1135.365 2.4288-.617 4.2897-2.664 5.2944-4.953 1.006-2.288 1.282-4.818 1.517-7.306a223.0066 223.0066 0 0 0 1.085-24.6658ZM92.7529 139.591c-1.3094.648-2.2689 1.834-3.0317 3.078-1.6902 2.753-2.5963 6.276-1.26 9.218 1.3974 3.076 3.9188 4.197 6.4018 3.949a7.986 7.986 0 0 0 4.681-2.25 7.94 7.94 0 0 0 2.298-4.646c.548-4.907-3.2688-12.229-9.0891-9.349Z" fill="#fff"/><path d="M264.795 134.213c-.058-.468-.121-.94-.186-1.408a89.9018 89.9018 0 0 0-5.888-22.193c-12.603 10.294-26.899 18.336-42.253 23.77.901 3.772 1.419 8.071-1.775 10.838-2.569 2.227-6.257 2.881-9.534 3.249-2.154.239-4.321.356-6.488.351-6.453 0-12.962-.947-19.247-2.082-3.826-.689-7.627-1.508-11.402-2.43-1.93-.475-3.791-.847-5.552-1.776a11.543 11.543 0 0 1-1.554-.936c-.545-.417-1.011-.93-1.547-1.36a6.4995 6.4995 0 0 0-4.03-1.386 6.285 6.285 0 0 0-1.847.275 6.477 6.477 0 0 1-1.96.344 8.0349 8.0349 0 0 1-2.259-.406c-3.432-.988-6.861-1.99-10.262-3.077a7.9357 7.9357 0 0 0-2.335-.475c-.452-.009-.899.09-1.305.289-1.55.785-1.757 3.056-.88 4.55.877 1.494 2.475 2.392 4.002 3.218 1.353.737 2.707 1.471 4.06 2.203 1.071.582 3.053.847 3.681 1.948-1.112.506-2.203.709-2.731 2.02a3.1163 3.1163 0 0 0-.141 1.741c.119.582.401 1.118.814 1.546-1.595 1.119-1.726 3.57-.759 5.26 1.315 2.302 4.022 3.362 6.522 4.264 4.993 1.793 9.955 3.662 14.993 5.328a191.499 191.499 0 0 0 26.771 6.691c8.348 1.474 16.848 2.462 25.34 2.462.967 0 1.934-.013 2.901-.039 7.669-.206 15.852-1.16 22.699-4.863.173-.093.349-.19.522-.289a46.7343 46.7343 0 0 0 12.399-10.044c6.279-7.331 10.423-17.946 9.231-27.583ZM47.5275 117.954a4.3032 4.3032 0 0 0-2.0749-.796 15.7243 15.7243 0 0 1-.4558-.09 20.789 20.789 0 0 1-3.3687-1.057 19.8938 19.8938 0 0 1-3.8673-2.072 3.9533 3.9533 0 0 1-1.4351-1.645c-.7168-1.632-.0204-3.61.6664-5.15.423-.949.9172-1.867 1.4724-2.883a33.5841 33.5841 0 0 0 1.4592-3.155l.0483-.114c.3305-.783.6019-1.6267.3498-2.4803a2.7388 2.7388 0 0 0-1.005-1.323 2.753 2.753 0 0 0-1.5871-.5012 4.9466 4.9466 0 0 0-2.8563.9661c-1.4848.9947-2.5055 2.345-3.4937 3.6504-.2279.301-.4568.604-.693.904a14.9287 14.9287 0 0 1-1.4686 1.549l-.6153.588c-1.27 1.21-2.5835 2.462-3.7699 3.807-1.7358 1.968-2.9351 4.138-4.0127 6.193a22.1653 22.1653 0 0 0-2.3415 7.058c-.6419 4.337.7251 9.052 3.481 12.012 1.6166 1.736 3.5596 2.998 5.7485 4.352.1529.095.3194.201.4965.314 1.1695.747 3.0041 1.918 4.6487 1.918.4476.01.8905-.092 1.2893-.294a2.719 2.719 0 0 0 .9966-.867 3.296 3.296 0 0 0 .4668-2.785 4.9764 4.9764 0 0 0-1.0673-1.951 6.605 6.605 0 0 0-.3266-.357c-.9078-.929-1.827-1.949-2.7279-3.02.8251.44 1.6819.818 2.5632 1.131a18.2248 18.2248 0 0 0 5.9259 1.067 7.5639 7.5639 0 0 0 2.5497-.332c1.6412-.567 2.6588-1.98 2.5289-3.513-.2316-2.765-3.2955-3.646-5.5326-4.289-.3426-.099-.6682-.192-.9627-.287a11.5816 11.5816 0 0 1-2.9651-1.538c.2116.071.4239.139.6371.206.2282.072.4613.149.6975.228.8043.295 1.6339.515 2.4785.66a18.468 18.468 0 0 0 3.6847.193c3.089-.214 4.8728-1.299 5.3017-3.225.2223-1.001.0411-2.334-.8636-3.072Z" fill="#939393"/><path d="M162.886 8.6887a10.0317 10.0317 0 0 0-.621 2.2885c-.154 1.067-.118 2.2131.419 3.1503.611 1.067 1.761 1.6955 2.87 2.229a50.5683 50.5683 0 0 0 14.726 4.4744c.795.1136 1.767.1332 2.21-.5332.194-.3633.281-.7736.252-1.184l.172-8.0935c-.017.8347 1.899 3.0684 2.306 3.9478a27.2776 27.2776 0 0 1 1.667 4.8004 17.7858 17.7858 0 0 1-.153 9.6371c-1.738 6.1747-6.099 11.7898-5.777 18.4484.198 4.0841 2.249 7.9506 2.176 12.0385-.091 5.0485-3.341 9.3963-5.781 13.8197a47.2642 47.2642 0 0 0-4.516 11.5781c-1.174 4.7989-1.459 10.2752 1.45 14.2747 1.979 2.7191 5.16 4.3351 8.389 5.2981 9.139 2.725 20.035.414 26.084-6.9378 4.088-4.9683 6.808-12.3483 5.74-18.6996-1.15-6.8393-4.578-13.1702-4.928-20.1665-.291-5.8277 1.653-11.5136 2.375-17.3039.754-6.0373-.778-10.0846-3.517-15.2518-2.376-4.482-3.643-9.4868-6.393-13.8259-6.488-10.2364-23.46-16.8372-34.389-9.6658a12.4962 12.4962 0 0 0-4.761 5.677ZM216.715 134.689a.5197.5197 0 0 1-.291-.089.516.516 0 0 1-.191-.237c-.04-.102-4.089-10.205-9.604-16.187-4.328-4.694-11.077-7.609-15.23-7.969a.5198.5198 0 0 1-.352-.182.5159.5159 0 0 1-.119-.377.5125.5125 0 0 1 .183-.35.5183.5183 0 0 1 .378-.119c5.11.442 11.947 4.01 15.903 8.298 5.647 6.127 9.638 16.085 9.804 16.506a.52.52 0 0 1 .034.247.5211.5211 0 0 1-.087.233.5038.5038 0 0 1-.186.166c-.074.04-.158.06-.242.06Z" fill="#2A3439"/></svg>