<svg width="148" height="249" fill="none" xmlns="http://www.w3.org/2000/svg"><path d="M137.24 208.089c-.387 0-.704.283-.74.671v.036l-129.8369.6c0-.388-.3172-.706-.7049-.706-.3876 0-.7048.318-.7048.706 0 1.378-.0705 2.932-.1763 4.593-.3524 7.348-.8106 16.499 4.6522 20.597 7.0839 5.264 15.1195 7.384 22.8731 9.468 1.0573.283 2.1498.565 3.2071.848 7.2602 1.978 14.9433 2.685 22.4149 3.356l.4934.035c5.1808.46 11.278.707 17.4456.707 8.6346 0 17.375-.459 23.8946-1.307 7.261-.954 18.468-4.169 25.552-7.278 5.463-2.402 11.736-6.041 11.736-12.824l.035-.354.494-18.371c.07-.459-.247-.777-.635-.777Z" fill="#E2E2E2"/><path d="M131.637 236.564c-.388 0-.705-.318-.705-.706.035-3.781.246-7.843.458-11.765.211-4.169.458-8.514.458-12.542 0-.388.317-.706.705-.706.388 0 .705.318.705.706 0 4.063-.212 8.409-.458 12.613-.212 3.921-.423 7.949-.423 11.694-.036.388-.353.706-.74.706ZM127.195 239.285c-.105 0-.211-.036-.317-.071-.352-.177-.528-.565-.528-1.166 0-.318.07-.565.176-.742.035-2.226.176-4.663.317-7.03.07-1.378.176-2.65.211-3.851.036-.954.071-1.943.071-2.897 0-.919.035-1.873.07-2.791 0-.389.071-.883.106-1.413.106-1.343.282-3.215-.035-4.028-.141-.353.07-.777.423-.918.352-.142.775.07.916.424.423 1.13.247 3.003.106 4.628-.035.494-.071.989-.106 1.342-.035.919-.035 1.837-.07 2.756 0 .954-.036 1.943-.071 2.932-.035 1.201-.141 2.508-.211 3.886-.176 2.791-.353 5.688-.317 8.197 0 .212-.071.388-.212.53-.141.141-.317.212-.529.212Z" fill="#fff"/><path d="M136.078 205.263c-4.371-3.463-10.186-5.759-14.309-7.101-8.776-2.862-18.186-5.653-27.7018-6.678-23.5427-2.614-47.3673-.953-68.9011 4.734-.7754.212-18.7143 5.053-20.2298 12.578-.4934 2.367.7048 4.663 3.5243 6.853 4.476 3.463 12.0886 6.501 17.3046 7.702 17.0226 3.957 30.3447 5.441 52.1252 5.441 3.4539 0 7.1192-.036 11.0665-.106 13.6041-.247 24.4941-3.109 31.2261-5.512l.669-.247c6.344-2.226 16.952-5.935 17.446-13.39.106-1.589-.635-3.038-2.22-4.274Z" fill="#1ED86C"/><path d="M71.8984 221.691c-14.5908 0-28.3358-1.201-38.6621-3.392-7.5422-1.59-16.5293-4.416-16.5293-8.832s8.9871-7.243 16.5293-8.832c10.3263-2.191 24.0713-3.392 38.6621-3.392 14.5909 0 28.3356 1.201 38.6626 3.392 7.542 1.589 16.529 4.416 16.529 8.832s-8.987 7.242-16.529 8.832c-10.327 2.191-24.0717 3.392-38.6626 3.392Zm0-22.999c-14.5203 0-28.1243 1.201-38.3802 3.356-9.6567 2.049-15.4014 4.84-15.4014 7.454 0 2.615 5.7447 5.406 15.4014 7.455 10.2559 2.155 23.8599 3.356 38.3802 3.356 14.5204 0 28.1246-1.201 38.3806-3.356 9.656-2.049 15.401-4.84 15.401-7.455 0-2.614-5.745-5.405-15.401-7.454-10.256-2.191-23.8602-3.356-38.3806-3.356Z" fill="#fff"/><path d="m145.1 174.95-.494 18.372-.035.353c0 6.712-6.802 10.21-11.349 12.188-6.661 2.933-17.903 6.254-25.34 7.243-11.63 1.554-29.428 1.696-41.1641.6-7.5422-.706-15.4367-1.377-22.8026-3.391-8.9519-2.438-17.9037-4.31-25.8688-10.21-6.3791-4.734-4.2292-17.276-4.2292-24.625" fill="#fff"/><path d="M84.1292 215.155c-6.1676 0-12.2648-.247-17.4456-.707l-.4934-.035c-7.4716-.671-15.1547-1.378-22.4149-3.356-1.0573-.283-2.1499-.566-3.2072-.848-7.7535-2.049-15.7891-4.169-22.873-9.468-5.498-4.063-5.0398-13.213-4.6522-20.597.0705-1.661.1763-3.215.1763-4.593 0-.389.3171-.706.7048-.706s.7049.317.7049.706c0 1.413-.0705 3.003-.1762 4.664-.3525 7.03-.7754 15.756 4.0882 19.36 6.8725 5.123 14.4146 7.101 22.4149 9.221 1.0573.282 2.1499.565 3.2072.848 7.1192 1.943 14.767 2.649 22.1682 3.32l.4934.036c12.3 1.13 29.9218.883 41.0234-.601 7.014-.918 18.291-4.133 25.164-7.172 5.075-2.261 10.925-5.582 10.925-11.552v-.035l.036-.354.493-18.371c0-.388.317-.706.74-.671.388 0 .705.318.67.742l-.494 18.371-.035.353c0 6.783-6.273 10.422-11.736 12.825-7.084 3.109-18.291 6.323-25.551 7.277-6.556.884-15.2961 1.343-23.9308 1.343Z" fill="#2A3439"/><path d="M139.531 203.072c-.388 0-.705-.318-.705-.706.035-3.78.247-7.914.458-11.941.212-4.275.459-8.691.459-12.719 0-.389.317-.706.704-.706.388 0 .705.317.705.706 0 4.063-.211 8.479-.458 12.789-.211 3.992-.423 8.126-.423 11.871-.035.388-.352.706-.74.706ZM135.126 205.757c-.246 0-.493-.141-.669-.388-.212-.354-.247-1.237-.036-1.802-.035-2.403.141-4.77.282-7.101.071-1.272.177-2.615.247-3.886.035-.954.071-1.944.071-2.862 0-.919.035-1.873.07-2.791 0-.389.07-.883.106-1.413.105-1.343.282-3.215-.036-4.028-.14-.353.071-.777.423-.918.353-.142.776.07.917.424.423 1.13.246 3.003.105 4.628-.035.494-.07.989-.105 1.342-.036.919-.036 1.837-.071 2.756 0 .954-.035 1.943-.07 2.932-.071 1.307-.141 2.65-.247 3.922-.176 2.331-.317 4.734-.282 7.136 0 .141-.035.283-.141.424-.035.106-.035.318-.035.459.035.071.07.106.106.177.141.353-.036.777-.388.919-.071.07-.176.07-.247.07Z" fill="#2A3439"/><path d="M143.972 171.417c-4.37-3.462-10.185-5.758-14.309-7.101-8.775-2.861-18.185-5.652-27.701-6.677-23.5429-2.614-47.3676-.954-68.9014 4.734-.7754.212-18.7143 5.052-20.2298 12.577-.4934 2.367.7049 4.664 3.5244 6.854 4.4759 3.462 12.0885 6.501 17.3046 7.702 17.0226 3.957 30.3446 5.441 52.1252 5.441 3.4538 0 7.1544-.036 11.0664-.106 13.6036-.248 24.4946-3.109 31.2256-5.512l.67-.247c6.344-2.226 16.952-5.935 17.445-13.39.106-1.589-.634-3.003-2.22-4.275Z" fill="#8BF5AF"/><path d="M79.793 187.881c-14.5909 0-28.3359-1.201-38.6622-3.392-7.5421-1.59-16.5292-4.416-16.5292-8.832s8.9871-7.242 16.5292-8.832c10.3263-2.191 24.0713-3.392 38.6622-3.392 14.5908 0 28.336 1.201 38.662 3.392 7.542 1.59 16.529 4.416 16.529 8.832s-8.987 7.242-16.529 8.832c-10.326 2.191-24.0712 3.392-38.662 3.392Zm0-23.035c-14.5204 0-28.1244 1.202-38.3803 3.357-9.6567 2.049-15.4014 4.84-15.4014 7.454s5.7447 5.405 15.4014 7.454c10.2559 2.156 23.8599 3.357 38.3803 3.357 14.5203 0 28.124-1.201 38.38-3.357 9.657-2.049 15.402-4.84 15.402-7.454s-5.745-5.405-15.402-7.454c-10.256-2.155-23.8949-3.357-38.38-3.357Z" fill="#fff"/><path d="M76.8692 181.522c-.1057 0-.2115 0-.3172-.036-.6696-.176-1.3392-.883-2.1146-1.766-.0705-.106-.141-.177-.2115-.247l-.9515-1.06c-1.7622-1.943-3.5596-3.957-5.3218-6.006-.2467-.283-.4582-.601-.7049-.989-.2819-.424-.5991-.919-.8458-1.131-.2115-.177-.4934-.071-1.1278.141-.2115.071-.3877.142-.5992.212-1.8679.53-3.5596 1.413-5.357 2.332-.7049.353-1.4097.707-2.1146 1.06-1.163.565-2.3613.989-3.5243 1.413-1.2688.459-2.5376.954-3.7711 1.555-.5287.282-1.0926.494-1.6565.741-1.022.424-1.9736.813-2.7842 1.449-.3172.247-.7401.177-.9868-.141-.2467-.318-.1762-.742.141-.99.9515-.742 2.0441-1.165 3.1014-1.625.5286-.212 1.0573-.459 1.5507-.706 1.2688-.636 2.608-1.131 3.912-1.625 1.1278-.424 2.2909-.848 3.4187-1.378.7048-.354 1.4097-.707 2.0793-1.06 1.7622-.919 3.5949-1.837 5.6038-2.438.1762-.035.3171-.106.4934-.177.7048-.247 1.6564-.6 2.5023.071.4229.318.7753.883 1.1277 1.449.2115.318.423.636.5992.848 1.7269 2.013 3.5243 4.027 5.2865 5.97l.9516 1.06c.0705.071.141.177.2467.283.2467.318 1.0573 1.236 1.3745 1.342.3172.035 1.1983-.742 1.5507-1.024.1058-.106.2115-.177.3172-.248 2.2556-1.837 4.4759-3.391 6.8725-5.016.7754-.53 1.5155-1.06 2.2908-1.59.3525-.248.7049-.495 1.0573-.777 1.0221-.742 2.0442-1.52 3.2072-2.05 1.445-.635 5.2865 1.555 6.8725 2.544 1.5506.954 3.1016 1.696 4.7226 2.508.458.212.916.424 1.375.672 2.185 1.024 4.687 2.225 6.379 3.851.282.282.282.706.035.989-.282.282-.705.282-.987.035-1.515-1.448-3.877-2.579-5.991-3.568-.494-.247-.952-.459-1.41-.671-1.692-.848-3.2425-1.625-4.8637-2.579-2.3966-1.484-5.0046-2.615-5.5685-2.438-1.0221.459-1.9736 1.13-2.9605 1.872-.3524.283-.7048.53-1.0925.778-.7754.53-1.5507 1.059-2.2908 1.589-2.3614 1.626-4.5817 3.145-6.7668 4.946-.1057.071-.1762.177-.282.248-.7401.636-1.6212 1.378-2.467 1.378Z" fill="#fff"/><path d="M132.412 146.828c-.387-.035-.705.283-.74.672v.035l-129.837.601c0-.389-.3172-.707-.7049-.707s-.7049.318-.7049.707c0 1.378-.0705 2.932-.1762 4.592-.3524 7.349-.8106 16.499 4.6522 20.597 7.0839 5.264 15.1194 7.384 22.873 9.468 1.0573.283 2.1499.566 3.2072.848 7.2602 1.979 14.9433 2.685 22.4149 3.357l.4934.035c5.1808.459 11.2779.707 17.4456.707 8.6346 0 17.375-.46 23.8951-1.308 7.2606-.954 18.4676-4.169 25.5516-7.277 5.463-2.403 11.736-6.042 11.771-12.825l.036-.353.493-18.371c0-.46-.282-.778-.67-.778Z" fill="#E2E2E2"/><path d="M126.773 175.657c-.387 0-.705-.318-.705-.707.036-3.78.247-7.913.459-11.905.211-4.275.458-8.691.458-12.719 0-.389.317-.706.705-.706.387 0 .704.317.704.706 0 4.063-.211 8.479-.458 12.789-.211 3.992-.423 8.126-.423 11.871-.035.353-.352.671-.74.671ZM122.368 178.377c-.106 0-.212-.035-.317-.07-.388-.177-.564-.601-.529-1.378 0-.283.035-.601.176-.883.035-2.226.176-4.699.317-7.101.071-1.343.141-2.65.212-3.816.035-.954.07-1.943.07-2.862 0-.918.036-1.872.071-2.791 0-.388.07-.883.106-1.413.105-1.342.281-3.215-.036-4.027-.141-.354.071-.778.423-.919.353-.141.776.071.917.424.422 1.131.246 3.003.105 4.628-.035.495-.07.989-.105 1.343-.036.918-.036 1.872-.071 2.755 0 .954-.035 1.943-.07 2.933-.036 1.166-.141 2.473-.212 3.815-.176 2.968-.352 6.041-.317 8.585 0 .212-.071.389-.212.53-.14.177-.352.247-.528.247Z" fill="#fff"/><path d="M131.249 144.002c-4.37-3.462-10.185-5.758-14.308-7.101-8.776-2.862-18.1861-5.653-27.7019-6.677-23.5427-2.614-47.3673-.954-68.9012 4.734-.7753.212-18.7143 5.052-20.2297 12.577-.4935 2.367.7048 4.664 3.5243 6.854 4.476 3.462 12.0885 6.5 17.3046 7.702 17.0226 3.957 30.3447 5.44 52.1252 5.44 3.4539 0 7.1192-.035 11.0665-.106 13.604-.247 24.4942-3.109 31.2262-5.511l.669-.247c6.344-2.226 16.952-5.936 17.446-13.39.106-1.59-.67-3.038-2.221-4.275Z" fill="#1ED86C"/><path d="M67.0703 160.465c-14.5908 0-28.3358-1.201-38.6622-3.391-7.5421-1.59-16.5292-4.416-16.5292-8.832s8.9871-7.243 16.5292-8.833c10.3264-2.19 24.0714-3.391 38.6622-3.391 14.5908 0 28.3358 1.201 38.6617 3.391 7.543 1.59 16.53 4.417 16.53 8.833s-8.987 7.242-16.53 8.832c-10.3611 2.19-24.0709 3.391-38.6617 3.391Zm0-23.034c-14.5203 0-28.1243 1.201-38.3802 3.356-9.6567 2.049-15.4015 4.84-15.4015 7.455 0 2.614 5.7448 5.405 15.4015 7.454 10.2559 2.155 23.8599 3.356 38.3802 3.356 14.5204 0 28.1244-1.201 38.3807-3.356 9.656-2.049 15.401-4.84 15.401-7.454 0-2.615-5.745-5.406-15.401-7.455-10.2563-2.155-23.8956-3.356-38.3807-3.356Z" fill="#fff"/><path d="M64.1114 154.071c-.1057 0-.2115 0-.3172-.035-.6696-.177-1.3392-.884-2.1146-1.767-.0705-.106-.141-.176-.2115-.247l-.9515-1.06c-1.7622-1.943-3.5596-3.957-5.3218-6.006-.2467-.283-.4582-.601-.7049-.989-.2819-.424-.5991-.919-.8458-1.131-.2115-.176-.4934-.07-1.1278.142-.2115.07-.3877.141-.5992.212-1.8679.53-3.5596 1.413-5.357 2.331-.7049.354-1.4097.707-2.1146 1.06-1.1631.565-2.3613.989-3.5244 1.413-1.2687.46-2.5375.954-3.771 1.555-.5287.282-1.0926.494-1.6565.742-1.022.424-1.9736.812-2.7842 1.448-.3172.248-.7401.177-.9868-.141-.2467-.318-.1762-.742.1409-.989.9516-.742 2.0442-1.166 3.1015-1.625.5286-.212 1.0573-.46 1.5507-.707 1.2688-.636 2.608-1.131 3.912-1.625 1.1278-.424 2.2909-.848 3.4187-1.378.7048-.353 1.4097-.707 2.0793-1.06 1.7622-.918 3.5949-1.837 5.6037-2.438.1763-.035.3172-.106.4935-.176.7048-.248 1.6564-.601 2.5023.07.4229.318.7753.884 1.1277 1.449.2115.318.423.636.5992.848 1.7269 2.014 3.5596 4.027 5.2865 5.97l.9516 1.06c.0705.071.141.177.2467.283.2467.318 1.0573 1.236 1.3745 1.342.282.036 1.1983-.741 1.5507-1.024.1057-.106.2115-.177.3172-.247 2.2556-1.838 4.4759-3.392 6.8725-5.017.7754-.53 1.5155-1.06 2.2908-1.59.3525-.247.7049-.495 1.0574-.777 1.022-.742 2.0441-1.519 3.2071-2.049 1.4097-.636 5.2865 1.554 6.8725 2.543 1.5507.954 3.1014 1.696 4.7226 2.509.4582.212.9164.424 1.3745.671 2.1851 1.025 4.6874 2.226 6.3791 3.851.282.283.282.706.0353.989-.282.283-.7049.283-.9869.035-1.5154-1.448-3.912-2.579-5.9914-3.568-.4934-.247-.9515-.459-1.4097-.671-1.6917-.848-3.2776-1.625-4.8636-2.579-2.3966-1.484-5.0046-2.614-5.5685-2.438-1.0221.46-1.9736 1.131-2.9605 1.873-.3524.282-.7048.53-1.0925.777-.7754.53-1.5507 1.06-2.2908 1.59-2.3614 1.625-4.5817 3.144-6.7668 4.946-.1057.07-.1762.176-.2819.247-.7049.636-1.586 1.378-2.4671 1.378Z" fill="#2A3439"/><path d="m146.933 112.701-.493 18.371-.035.353c0 6.713-6.802 10.21-11.349 12.189-6.661 2.932-17.903 6.253-25.34 7.242-11.6301 1.554-29.4281 1.696-41.1642.601-7.5421-.707-15.4366-1.378-22.8025-3.392-8.9519-2.438-17.9038-4.31-25.8688-10.21-6.3791-4.734-4.2292-17.276-4.2292-24.624" fill="#fff"/><path d="M85.926 152.905c-6.1676 0-12.2647-.247-17.4455-.706l-.4934-.036c-7.4716-.671-15.1547-1.378-22.4149-3.356-1.0573-.283-2.1499-.565-3.2072-.848-7.7536-2.049-15.7891-4.169-22.873-9.468-5.498-4.063-5.0399-13.213-4.6522-20.597.0705-1.66.1762-3.215.1762-4.593 0-.388.3172-.706.7049-.706s.7049.318.7049.706c0 1.413-.0705 3.003-.1762 4.664-.3525 7.03-.7754 15.756 4.0882 19.36 6.8725 5.123 14.4146 7.101 22.4149 9.221 1.0573.283 2.1499.565 3.2072.848 7.1192 1.943 14.767 2.649 22.1682 3.321l.4934.035c12.3 1.131 29.9217.883 41.0235-.601 7.013-.918 18.291-4.133 25.164-7.171 5.075-2.261 10.925-5.582 10.925-11.553v-.035l.036-.354.493-18.371c0-.388.317-.706.74-.671.388 0 .705.318.67.742l-.494 18.371-.035.353c0 6.784-6.273 10.422-11.771 12.825-7.084 3.109-18.292 6.324-25.552 7.278-6.52.883-15.2603 1.342-23.895 1.342Z" fill="#2A3439"/><path d="M141.33 140.823c-.388 0-.705-.318-.705-.707.035-3.78.247-7.914.458-11.906.212-4.275.458-8.691.458-12.718 0-.389.318-.707.705-.707.388 0 .705.318.705.707 0 4.063-.211 8.479-.458 12.789-.212 3.992-.423 8.125-.423 11.87-.035.354-.352.672-.74.672ZM136.924 143.543c-.105 0-.211-.035-.317-.071-.387-.176-.564-.6-.528-1.378 0-.282.035-.6.176-.883.035-2.225.176-4.699.317-7.066.071-1.342.141-2.649.211-3.815.036-.954.071-1.943.071-2.862 0-.918.035-1.872.07-2.791 0-.388.071-.883.106-1.413.106-1.342.282-3.215-.035-4.027-.141-.354.07-.778.423-.919.352-.141.775.071.916.424.423 1.131.247 3.003.106 4.628-.035.495-.071.989-.106 1.343-.035.918-.035 1.872-.07 2.755 0 .954-.036 1.943-.071 2.933-.035 1.165-.141 2.473-.211 3.815-.176 2.968-.353 6.041-.317 8.585 0 .212-.071.389-.212.53-.176.141-.352.212-.529.212Z" fill="#2A3439"/><path d="M145.769 109.168c-4.37-3.462-10.185-5.759-14.309-7.101-8.776-2.8619-18.186-5.6529-27.701-6.6775-23.5431-2.6143-47.3677-.9538-68.9015 4.7345-.7754.212-18.7143 5.052-20.2298 12.577-.4934 2.367.7049 4.663 3.5243 6.854 4.476 3.462 12.0886 6.5 17.3046 7.701 17.0226 3.957 30.3447 5.441 52.1252 5.441 3.4539 0 7.1192-.035 11.0665-.106 13.6037-.247 24.4947-3.109 31.2257-5.511l.67-.248c6.344-2.225 16.952-5.935 17.445-13.389.106-1.59-.634-3.003-2.22-4.275Z" fill="#8BF5AF"/><path d="M81.5918 125.631c-14.5908 0-28.3358-1.201-38.6622-3.391-7.5421-1.59-16.5292-4.417-16.5292-8.833s8.9871-7.242 16.5292-8.832c10.3264-2.19 24.0714-3.392 38.6622-3.392 14.5908 0 28.3362 1.202 38.6622 3.392 7.542 1.59 16.529 4.416 16.529 8.832s-8.987 7.243-16.529 8.833c-10.326 2.19-24.0714 3.391-38.6622 3.391Zm0-23.034c-14.5203 0-28.1244 1.201-38.3802 3.356-9.6568 2.049-15.4015 4.84-15.4015 7.454 0 2.615 5.7447 5.406 15.4015 7.455 10.2558 2.155 23.8599 3.356 38.3802 3.356 14.5203 0 28.1242-1.201 38.3802-3.356 9.657-2.049 15.401-4.84 15.401-7.455 0-2.614-5.744-5.405-15.401-7.454-10.256-2.155-23.8599-3.356-38.3802-3.356Z" fill="#fff"/><path d="M78.6661 119.272c-.1057 0-.2115 0-.3172-.035-.6696-.177-1.3393-.884-2.1146-1.767-.0705-.106-.141-.176-.2115-.247l-.9516-1.06c-1.7621-1.943-3.5596-3.957-5.3217-6.006-.2467-.283-.4582-.601-.7049-.989-.282-.424-.5991-.919-.8459-1.131-.2114-.176-.4934-.07-1.1278.142-.2114.07-.3876.141-.5991.212-1.8679.53-3.5596 1.413-5.357 2.331-.7049.354-1.4097.707-2.1146 1.06-1.1631.565-2.3613.989-3.5244 1.413-1.2687.46-2.5375.954-3.771 1.555-.5287.282-1.0926.494-1.6565.742-1.022.424-1.9736.812-2.7842 1.448-.3172.248-.7401.177-.9868-.141-.2467-.318-.1763-.742.1409-.989.9516-.742 2.0442-1.166 3.1015-1.625.5286-.212 1.0573-.46 1.5507-.707 1.2687-.636 2.608-1.131 3.912-1.625 1.1278-.424 2.2908-.848 3.4186-1.378.7049-.353 1.4098-.707 2.0794-1.06 1.7622-.918 3.5949-1.837 5.6037-2.438.1763-.035.3172-.106.4934-.176.7049-.247 1.6565-.601 2.5023.07.423.318.7754.884 1.1278 1.449.2115.318.423.636.5992.848 1.7269 2.014 3.5596 4.027 5.2865 5.97l.9516 1.06c.0705.071.1409.177.2467.283.2467.318 1.0573 1.236 1.3745 1.342.3172.036 1.1983-.741 1.5507-1.024.1057-.106.2115-.177.3172-.247 2.2556-1.837 4.4759-3.392 6.8725-5.017.7753-.53 1.5155-1.06 2.2908-1.59.3524-.247.7049-.494 1.0573-.777 1.0221-.742 2.0441-1.519 3.2072-2.049 1.445-.636 5.2865 1.554 6.8722 2.543 1.551.954 3.102 1.696 4.723 2.509.458.212.916.424 1.374.671 2.185 1.025 4.688 2.226 6.379 3.851.282.283.282.707.036.989-.282.283-.705.283-.987.035-1.516-1.448-3.877-2.579-5.991-3.568-.494-.247-.952-.459-1.41-.671-1.692-.848-3.278-1.625-4.864-2.579-2.3964-1.484-5.0044-2.614-5.5683-2.438-1.0221.46-1.9737 1.131-2.9605 1.873-.3524.282-.7048.53-1.0925.777-.7754.53-1.5507 1.06-2.2909 1.59-2.3613 1.625-4.5816 3.144-6.7667 4.946-.1058.07-.1762.176-.282.247-.7401.636-1.6212 1.378-2.467 1.378Z" fill="#2A3439"/><path d="m66.8594 1.0612 19.9831-.106h.3877c7.2954-.212 11.2426 5.8646 13.5338 9.8921 3.348 5.9353 7.225 16.0394 8.493 22.7166 1.974 10.4574 2.573 26.6027 1.692 37.2367-.564 6.8539-1.128 14.0256-3.101 20.7381-2.432 8.1964-4.23 16.3573-10.4325 23.7063-5.0046 5.935-18.679 4.345-26.6441 4.557" fill="#fff"/><path d="M79.4413 120.579c-1.2336 0-2.4671 0-3.6301-.035-1.7974-.036-3.5244-.036-5.0046 0-.3877.035-.7049-.283-.7401-.671 0-.389.2819-.707.6696-.742 1.5155-.036 3.2424-.036 5.0751 0 7.6831.106 17.2341.212 21.0404-4.31 5.3574-6.36 7.3654-13.249 9.4454-20.5266.282-.9892.564-1.9431.846-2.9323 1.938-6.5006 2.502-13.425 3.031-20.1376l.035-.4592c.916-11.164.176-27.0973-1.692-37.0601-1.198-6.3239-4.969-16.3927-8.423-22.5046-2.5728-4.5221-6.3438-9.7155-12.8991-9.5388h-.423l-19.983.106c-.3877 0-.7049-.318-.7049-.7066s.3172-.7066.7049-.7066l19.983-.106h.3877C94.455.072 98.5433 5.6186 101.328 10.494c3.594 6.3239 7.33 16.3927 8.564 22.9285 1.903 10.0688 2.608 26.1788 1.691 37.4488l-.035.4593c-.564 6.7831-1.128 13.7782-3.101 20.4201-.282.9892-.564 1.9431-.846 2.9323-2.044 7.101-4.159 14.45-9.7273 21.056-3.5244 4.31-11.278 4.84-18.4324 4.84Z" fill="#2A3439"/><path d="M92.2347 6.0778c-2.7843 0-5.6742-.0353-8.4585-.0706-4.6169-.0707-9.41-.1413-13.7802-.0354-.3877 0-.7049-.2826-.7401-.6712 0-.3886.2819-.7066.6696-.742 4.4054-.1059 9.1985-.0353 13.8155.0354 4.2997.0707 8.7756.1413 12.8639.0353.3876 0 .7048.318.7048.7066s-.2819.7066-.7048.7066c-1.3745 0-2.8548.0353-4.3702.0353ZM73.8737 9.9994c-.282 0-.5639-.1766-.6697-.4946-.1057-.3533.0705-.7772.4582-.8832 1.1631-.3886 3.2072-.318 4.9693-.212.5639.0353 1.0574.0354 1.4803.0354.9868 0 2.0089 0 3.0309-.0354 1.0573 0 2.1146-.0353 3.1719-.0353 1.304 0 3.172.0353 5.1808.0707 3.0662.0706 7.225.1412 8.0003.0706.3172-.1413.7053 0 .8813.3533.106.212.106.4946-.035.7066-.282.4592-.282.4593-8.8466.2826-1.9736-.0353-3.8415-.0707-5.1455-.0707-1.0221 0-2.1146 0-3.1367.0354-.9868 0-2.0441.0353-3.0309.0353-.423 0-.9869-.0353-1.5508-.0353-1.4802-.0707-3.5243-.1413-4.4759.1413-.1057 0-.1762.0353-.2819.0353Z" fill="#2A3439"/><path d="M89.591 44.1625c-.5991-12.3298-4.0177-22.116-6.7667-28.1572l-.282-.6006C79.9696 9.7167 75.6698.2486 67.5991.0013c-1.6565-.0354-3.172.6712-4.476 2.1197-3.6301 4.0628-6.0266 9.3975-7.4011 13.1777-2.89 8.0197-5.6742 16.6753-6.5906 25.3309-2.2556 21.4094.141 42.96 6.8725 62.2854.0705.176 5.6742 16.004 13.7098 17.593.4229.071.8458.142 1.2687.142 2.2204 0 4.3702-1.166 6.3791-3.462 3.7358-4.24 6.8373-11.058 7.9651-15.581 4.5816-18.0174 5.5685-31.4424 4.2644-57.4445Z" fill="#1ED86C"/><path d="M70.5256 110.192c-2.608 0-6.4143-2.579-9.8329-14.6965-2.6433-9.2915-4.2997-21.692-4.6522-34.9404-.3524-13.213.5992-25.7195 2.7138-35.1523 2.7842-12.4711 6.52-15.1561 9.1281-15.2268 2.608-.0707 6.4495 2.4377 9.9387 14.6969 2.6432 9.2915 4.2997 21.692 4.6521 34.9403.3524 13.2131-.5991 25.7195-2.7138 35.1524-2.7842 12.4714-6.52 15.1564-9.128 15.2264h-.1058Zm-2.608-98.6028c-2.9604.0706-5.7799 5.2286-7.7888 14.1315-2.0794 9.3269-3.031 21.6921-2.6785 34.7991.3524 13.1071 2.0089 25.4016 4.6169 34.5871 2.5023 8.7611 5.6037 13.7781 8.5642 13.6721 2.9604-.07 5.7799-5.228 7.7888-14.1314 2.0794-9.3268 3.0309-21.692 2.6785-34.799-.3524-13.1071-2.0089-25.4016-4.6169-34.5871-2.5023-8.7616-5.6037-13.743-8.5642-13.6723Z" fill="#fff"/><path d="M73.3449 92.2099c-.1763 0-.3877-.0706-.4934-.2119-.8106-.8479-1.3393-1.8372-1.868-2.7557-.2467-.4946-.4934-.9539-.7753-1.3778-.7401-1.1306-1.304-2.3318-1.8679-3.4976-.4934-1.0246-.9868-2.0491-1.586-3.0383-.3877-.6359-.7753-1.2365-1.1983-1.8371-1.022-1.5898-2.1146-3.215-2.7842-5.0167-.0705-.1413-.141-.2827-.1762-.424-.282-.6359-.7401-1.5544.0352-2.4377.3525-.3886.9516-.7419 1.5507-1.0598.3525-.212.6697-.3887.8811-.5653 2.1499-1.6251 4.2997-3.3209 6.3439-4.9461l1.1278-.8832c.0705-.0707.1762-.1413.2819-.212.3172-.2473 1.1983-.9185 1.3745-1.2365-.0705-.3179-.8106-.9539-1.1278-1.2718-.1057-.106-.2114-.1767-.2819-.2827-2.0794-1.9784-3.8063-3.9568-5.639-6.0765-.5991-.6713-1.163-1.3425-1.7622-2.0138-.2819-.318-.5639-.6359-.8458-.9186-.8459-.8832-1.6917-1.8017-2.2909-2.8616-.7401-1.3072 1.3041-4.5928 2.5728-6.4652.9868-1.4132 1.7622-2.8263 2.608-4.3455.2468-.4239.4582-.8479.7049-1.2718 1.0926-2.0138 2.2908-4.3102 4.0178-5.9.2819-.2473.7401-.2473.9868.0354.2467.2826.2467.7419-.0352.9892-1.5508 1.4131-2.7138 3.6035-3.7359 5.5113-.2467.4593-.4581.8832-.7048 1.2719-.8811 1.5544-1.6917 3.0029-2.7138 4.4867-1.6212 2.3318-2.608 4.4515-2.5023 4.9814.5287.9186 1.2688 1.7311 2.0794 2.579.2819.318.5991.636.8811.9539.5991.6713 1.1983 1.3778 1.7974 2.0491 1.7974 2.0844 3.5244 4.0275 5.5332 5.9706.0705.0707.1763.1767.282.2473.8106.7419 1.7974 1.6605 1.5507 2.6497-.1762.6359-.9516 1.3071-1.9031 2.0137-.1058.0707-.2115.1414-.282.212l-1.1278.8832c-2.0794 1.6252-4.194 3.3563-6.3791 4.9814-.2819.212-.6696.424-1.0573.6713-.4581.2473-1.022.5652-1.1983.8125-.1057.106-.1057.2473.2115.8479.0705.1767.1762.3533.2467.53.6344 1.6604 1.6212 3.1796 2.6433 4.734.3877.6006.8106 1.2366 1.1983 1.9078.6343 1.0246 1.163 2.1197 1.6564 3.1443.5639 1.1658 1.0926 2.2611 1.7622 3.3209.3172.4946.5991.9892.8458 1.4838.4934.8833.9516 1.7312 1.6212 2.4731.282.2826.2467.7419-.0352.9892-.0705.1413-.2467.1766-.4229.1766Z" fill="#2A3439"/><path d="M131.178 60.3078c-6.449-2.7556-12.546-6.6772-18.432-10.634 4.758-3.109 10.08-5.688 18.009-8.6909.353-.1414.564-.53.423-.9186-.141-.3533-.528-.5652-.916-.4239-7.26 2.7556-12.335 5.1227-17.058 8.055 2.714-6.4652 5.71-12.8245 8.917-18.7951.176-.3532.07-.7772-.282-.9538-.353-.1767-.776-.0707-.952.2826-3.418 6.3592-6.626 13.1777-9.445 20.1022l-7.155-14.8382a.7049.7049 0 0 0-.951-.3179.7092.7092 0 0 0-.317.9538l6.379 13.2131c-2.643-1.8018-5.357-3.6036-8.036-5.264-.317-.212-.775-.106-.987.2119-.211.318-.105.7773.212.9892 2.96 1.8372 5.991 3.8862 8.917 5.8647.246.1766.493.3533.74.4946-3.701 2.579-7.401 5.6526-11.9831 9.7154-.282.2473-.3172.7066-.0705.9892.1409.1414.3172.2474.5286.2474.1762 0 .3172-.0707.4582-.1767 4.1588-3.6742 7.5068-6.5358 10.9608-9.0442-2.573 6.5359-4.828 13.1424-6.626 19.5722-.106.3887.106.7773.494.8833.07.0353.141.0353.176.0353.317 0 .599-.212.669-.5299 1.798-6.3946 4.053-13.0011 6.626-19.537l8.071 16.7107c.106.2473.388.3886.634.3886.106 0 .212-.0354.318-.0707a.7093.7093 0 0 0 .317-.9539l-7.965-16.4986c5.674 3.7802 11.524 7.4897 17.727 10.1394.106.0353.176.0707.282.0707.282 0 .529-.1767.635-.424.211-.2826.035-.6712-.318-.8479Z" fill="#1ED86C"/></svg>