<svg xmlns="http://www.w3.org/2000/svg" viewBox="0 0 154 46">
  <path d="M142.56 0H8.55c-.77.02-1.53.09-2.3.22-.74.12-1.47.36-2.14.72a7.23 7.23 0 00-3.9 5.34 16 16 0 00-.2 2.27L0 9.6v26.84c0 .34 0 .69.02 1.05.01.76.08 1.52.2 2.27.13.75.37 1.48.72 2.16A7.55 7.55 0 004.1 45.1c.68.34 1.4.58 2.15.7.75.13 1.52.2 2.29.2h136.28c.76 0 1.52-.07 2.27-.2a7.5 7.5 0 005.36-3.88c.34-.68.57-1.41.7-2.16.13-.75.2-1.51.2-2.27v-1.05c.02-.41.02-.83.02-1.24V10.82c0-.41 0-.83-.02-1.22V8.55c0-.76-.07-1.52-.2-2.27a7.98 7.98 0 00-.7-2.17 7.47 7.47 0 00-5.36-3.9 16 16 0 00-2.27-.2h-2.27V0z"/>
  <path fill="#FFF" d="M9.63 44.98H8.6a15.5 15.5 0 01-2.12-.18 6.38 6.38 0 01-5.25-5.24c-.11-.71-.17-1.42-.19-2.13l-.01-1.03V9.6l.01-1.03c.02-.7.08-1.42.18-2.12A6.38 6.38 0 013 2.99 6.45 6.45 0 016.47 1.2a16 16 0 012.13-.18h136.32c.71 0 1.42.07 2.11.18a6.1 6.1 0 013.48 1.78 6 6 0 011.78 3.46c.12.7.2 1.42.2 2.14V9.6l.01 1.22v24.34c0 .41 0 .8-.02 1.22v1.05c0 .7-.07 1.4-.2 2.1-.1.67-.3 1.3-.6 1.9a6.43 6.43 0 01-4.64 3.35c-.7.1-1.4.17-2.12.18H9.63v.02z"/>
  <path d="M56.86 31.14h-5.31l-1.3 3.58H47.9l5.21-13.33h2.2l5.34 13.33H58.2l-1.34-3.58zm-4.65-1.8h3.97l-1.43-3.81-.57-1.76c-.16.56-.35 1.14-.56 1.74l-1.4 3.83zm9.54-2.12c0-.73-.04-1.55-.08-2.41h2.14c.08.4.13.83.17 1.24a4.07 4.07 0 013.04-1.44c.65 0 1.28.18 1.83.5.61.38 1.1.94 1.38 1.6.34.71.53 1.61.53 2.73a6.71 6.71 0 01-.6 2.95 4.3 4.3 0 01-4.14 2.49c-.68 0-1.36-.11-2-.33v4.07l-2.27.2v-11.6zm5.98 5.06c.47-.63.7-1.53.7-2.72 0-1.18-.2-1.9-.57-2.4a1.87 1.87 0 00-1.54-.75c-.44 0-.86.1-1.24.3-.39.24-.75.52-1.07.84v5.3c.26.12.52.2.8.26.3.06.6.09.89.1.89 0 1.58-.31 2.03-.93zm4.42-5.06c0-.73-.02-1.55-.07-2.41h2.14c.09.4.14.82.16 1.24a4.07 4.07 0 013.04-1.44c.65 0 1.3.18 1.85.5.6.4 1.08.94 1.38 1.6.34.71.5 1.61.5 2.73a6.73 6.73 0 01-.6 2.95 4.16 4.16 0 01-1.64 1.86c-.75.43-1.61.65-2.48.63-.68 0-1.35-.11-2-.33v4.07l-2.28.2v-11.6zm6 5.06a4.6 4.6 0 00.69-2.72c0-1.18-.18-1.9-.58-2.4a1.83 1.83 0 00-1.53-.75 2.4 2.4 0 00-1.23.3c-.4.24-.75.51-1.07.84v5.3c.25.12.52.21.8.26.3.06.59.09.89.1.89 0 1.56-.31 2.03-.93zm7.22 1.77a5.5 5.5 0 01-2.26-2.32c-.53-1-.78-2.2-.78-3.58s.3-2.75.9-3.8c.58-1 1.45-1.82 2.49-2.33a8.84 8.84 0 015.72-.52c.67.15 1.33.38 1.96.68l-.58 1.74a8.1 8.1 0 00-3.48-.86 4.8 4.8 0 00-2.43.6c-.7.4-1.27 1-1.63 1.72-.4.78-.58 1.7-.58 2.77-.01.86.14 1.72.44 2.52.29.7.78 1.3 1.41 1.73.65.43 1.45.65 2.43.65a8.34 8.34 0 002.57-.43v-2.69h-3.08v-1.76h5.29v5.6a12.13 12.13 0 01-4.9 1.1 7.2 7.2 0 01-3.49-.82zm16.51.64a9.06 9.06 0 01-.14-1.32c-.4.44-.86.8-1.38 1.06a4.1 4.1 0 01-3.45.1 2.52 2.52 0 01-1.12-1.01 3.09 3.09 0 01-.42-1.64c0-.95.34-1.73 1.05-2.29.7-.55 1.84-.86 3.45-.86.6 0 1.21.04 1.81.13v-.2c0-.86-.18-1.48-.56-1.83-.38-.36-.9-.54-1.61-.54-.53 0-1.05.07-1.55.21-.5.13-.98.3-1.45.5l-.36-1.65a9.93 9.93 0 013.69-.74 5.6 5.6 0 012.18.4c.62.26 1.12.73 1.41 1.33.35.63.51 1.5.51 2.55v3.92c0 .42.04 1.05.07 1.87h-2.13zm-1.36-1.84c.44-.2.84-.49 1.16-.84v-1.84c-.61-.05-1.12-.09-1.52-.09-.94 0-1.59.14-1.93.45-.37.3-.57.75-.55 1.22 0 .48.13.84.38 1.08.3.25.68.38 1.07.36.48-.01.96-.13 1.4-.34zm5.54-.55V20.55l2.22-.19v11.52c0 .43.07.72.21.9.17.2.42.3.68.28.2-.01.4-.05.58-.11l.27 1.63c-.25.1-.5.17-.76.21a7.9 7.9 0 01-.87.08c-1.55 0-2.33-.85-2.33-2.57zm5.57 0V20.55l2.22-.19v11.52c0 .43.07.72.21.9.17.2.42.3.67.28.2-.01.4-.05.59-.11l.27 1.63c-.25.1-.5.17-.77.21a7.9 7.9 0 01-.87.08c-1.54 0-2.32-.85-2.32-2.57zm13.48-2.27h-6.5c.12 2.06 1.1 3.1 2.97 3.1a7.5 7.5 0 002.84-.63l.49 1.56a8.42 8.42 0 01-3.74.8c-1.05 0-1.94-.2-2.66-.59a3.97 3.97 0 01-1.65-1.7 6.18 6.18 0 01-.54-2.7c-.02-.98.18-1.94.58-2.83a4.28 4.28 0 014.01-2.43c.84-.02 1.66.21 2.35.67.63.43 1.11 1.04 1.4 1.74.3.77.46 1.59.45 2.41v.6zm-2.23-1.44a2.75 2.75 0 00-.6-1.77 1.8 1.8 0 00-1.4-.59c-.55-.01-1.07.2-1.45.6-.38.4-.63.99-.76 1.76h4.21zm4.06-1.29c0-.56-.02-1.39-.07-2.49h2.12a29.78 29.78 0 01.16 1.91c.23-.38.5-.75.77-1.1.26-.29.57-.53.9-.72.36-.19.75-.29 1.15-.29.3 0 .61.03.9.13l-.28 1.95a2.91 2.91 0 00-.72-.1c-.5-.01-1 .14-1.4.42-.5.37-.93.82-1.27 1.34v6.37h-2.26V27.3zm7.18 11.43a5.35 5.35 0 01-.8-.2l.4-1.64.58.12.66.06c1 0 1.74-.65 2.25-1.94l.14-.38-3.62-10h2.4l1.83 5.6c.24.71.43 1.45.58 2.2.18-.72.37-1.45.6-2.15l1.86-5.64h2.27l-3.62 10.05c-.28.8-.65 1.58-1.11 2.3-.36.54-.84.98-1.4 1.3a4.3 4.3 0 01-1.96.41c-.36 0-.71-.02-1.06-.09zM47.9 8.5h4.07l-.1.98H49.1v1.9h2.6v.9h-2.6v2.12H52l-.1.98h-4zm6.87 3.38L52.63 8.5h1.34l1.46 2.48 1.53-2.48h1.33l-2.14 3.32 2.3 3.56H57.1l-1.66-2.7-1.67 2.7h-1.31zm4.7-3.38h1.86c.87 0 1.53.18 2 .53.46.37.72.95.69 1.54 0 .42-.1.84-.32 1.2-.2.34-.5.62-.86.79-.4.18-.84.27-1.28.26-.3 0-.6-.03-.89-.09v2.65h-1.2V8.5zm2.98 3.07c.26-.25.4-.6.37-.96 0-.43-.12-.74-.37-.93-.34-.2-.74-.3-1.14-.27h-.64v2.43c.22.05.45.07.68.07.48 0 .85-.1 1.1-.34zm2.74-3.07h1.22v5.86h2.88l-.1 1.02h-4zm5.96 6.6c-.5-.3-.9-.73-1.17-1.24a4 4 0 01-.4-1.84c0-.67.14-1.34.44-1.94.27-.54.7-.98 1.22-1.27a3.72 3.72 0 011.9-.46c.62-.02 1.24.13 1.79.44.5.29.9.72 1.15 1.23.27.57.4 1.2.39 1.84.02.67-.13 1.34-.43 1.94-.27.54-.7 1-1.22 1.3a3.9 3.9 0 01-1.88.43 3.49 3.49 0 01-1.8-.44zm3.08-.86c.34-.23.6-.56.75-.95a4 4 0 00.02-2.7 2 2 0 00-.7-.93 2.36 2.36 0 00-2.45 0c-.34.24-.6.56-.77.94a3.67 3.67 0 000 2.67c.13.4.38.73.71.97.36.23.79.35 1.22.34.43.01.85-.11 1.22-.34zm3.56-5.74h2.18c.79 0 1.38.16 1.78.48.41.3.61.75.61 1.34 0 .33-.07.67-.21.97-.13.25-.32.48-.54.66-.2.16-.43.3-.67.4l2.12 3.03h-1.38l-1.8-2.73H79v2.73h-1.21V8.5zm1.87 3.25c.27.01.53-.05.78-.16.21-.1.4-.27.52-.48.13-.22.2-.47.2-.72a.9.9 0 00-.35-.75 1.6 1.6 0 00-.95-.23H79v2.34h.66zm4.28-3.25h4.07l-.1.98h-2.77v1.9h2.6v.9h-2.6v2.12h2.9l-.1.98h-4zm8.65 0h1.17v6.88h-1.17zm4.38 1h-2.19l.11-1h5.46l-.1 1h-2.08v5.88h-1.2zm8.46 5.6c-.5-.3-.9-.72-1.17-1.24-.27-.58-.4-1.2-.4-1.84 0-.67.14-1.34.44-1.94.27-.54.7-.98 1.22-1.27a3.72 3.72 0 011.9-.46 3.5 3.5 0 011.79.44c.5.28.9.71 1.15 1.23.27.57.4 1.2.39 1.84.02.67-.13 1.34-.43 1.94-.27.54-.7 1-1.22 1.3-.58.3-1.23.44-1.88.43a3.55 3.55 0 01-1.8-.44zm3.08-.86c.34-.23.6-.56.75-.95a3.9 3.9 0 00.02-2.7 2 2 0 00-.7-.93 2 2 0 00-1.24-.34c-.43-.02-.85.1-1.21.34-.34.24-.6.56-.76.95a3.53 3.53 0 00-.02 2.67c.15.38.4.71.72.96.37.23.79.35 1.22.34.43.01.86-.1 1.22-.34zm3.7-5.74h1.4l3.4 5.33c-.03-.5-.03-.97-.03-1.4V8.5h1.1v6.88h-1.33l-3.47-5.42c.03.61.05 1.17.05 1.63v3.8h-1.11v-6.9z"/>
  <path fill="#C8102E" d="M31.17 8.42H18.34c-6.05 0-8.25 2.2-8.25 8.26v12.8c0 6.06 2.2 8.26 8.25 8.26h12.81c6.05 0 8.26-2.2 8.26-8.25V16.68c0-6.05-2.2-8.26-8.24-8.26z"/>
  <path fill="#FFF" d="M15.87 23h.78v3.76h-.78v-1.53h-1.76v1.53h-.78V23h.78v1.5h1.76V23zm4.36 2.14c0 .62-.3.94-.87.94-.56 0-.88-.33-.88-.95V23h-.77v2.14c0 1.07.6 1.67 1.64 1.67S21 26.19 21 25.1V23h-.77v2.14zm8.97.45L28.3 23h-.63l-.86 2.59-.85-2.59h-.83l1.34 3.76h.65l.86-2.47.88 2.47h.63L30.84 23h-.8l-.84 2.59zm3.02-.45h1.42v-.69h-1.42v-.76h2.05V23h-2.8v3.76h2.88v-.7h-2.13v-.92zm3.06 1.62h.76V23h-.76v3.76zm-12.75-.78l-.34.78h-.8L23.08 23h.69l1.69 3.76h-.83l-.34-.78h-1.75zm.3-.7h1.16l-.57-1.34-.6 1.34zm1.86-7.11a4.88 4.88 0 01-4.91-4.84h.69a4.18 4.18 0 004.21 4.14 4.18 4.18 0 004.22-4.14h.7c0 2.66-2.2 4.83-4.92 4.84z"/>
</svg>
