<svg xmlns="http://www.w3.org/2000/svg" viewBox="0 0 480 462" fill="none"><path stroke="#F9BE01" stroke-linecap="round" stroke-width="2" d="M-11.343 415.951c8.844 2.96 17.274 6.964 26.088 9.982 15.495 5.304 33.201 8.013 49.507 8.612 13.244.486 27.47-2.729 40.287-5.77 16.448-3.902 32.815-8.527 48.618-14.556 32.611-12.442 64.01-27.124 93.747-45.414 34.126-20.989 65.603-46.004 100.364-65.985 22.692-13.044 47.021-22.277 72.105-29.422 21.755-6.197 44.497-12.014 67.274-11.652 9.345.148 18.683 1.117 27.7 3.661 1.842.519 5.795 1.233 6.995 2.484"/><path fill="#F9BE01" fill-rule="evenodd" d="M86.095 286.236c.465 8.522 10.457 1.781 5.693-1.965-1.512-.476-5.534-.114-5.693 1.965Zm-2.447.321c-1.082-6.598 12.472-8.072 12.633-.98.086 9.555-12.92 11.762-12.633.98Z" clip-rule="evenodd"/><path fill="#2DD276" fill-rule="evenodd" d="M158.326 277.427c-.32 3.012-4.008-.059-3.205 4.183.178 1.77-2.317 2.229-3.04.728-.756-.806.074-2.926-1.346-2.863-.835-.006-2.55.071-2.474-1.092.22-2.24 3.783-.833 3.729-2.766-.343-1.998 2.073-4.345 2.875-1.519-.565 3.198 3.255.768 3.461 3.329ZM425.855 313.137c-.32 3.012-4.008-.059-3.205 4.183.178 1.77-2.317 2.229-3.04.728-.756-.807.074-2.926-1.346-2.863-.835-.006-2.551.07-2.474-1.092.22-2.24 3.783-.834 3.729-2.766-.343-1.998 2.073-4.345 2.875-1.519-.565 3.198 3.254.767 3.461 3.329Z" clip-rule="evenodd"/><path fill="#FF9502" fill-rule="evenodd" d="M146.663 319.866c-.438 4.447 4.705-2.609 5.399 2.011-.248 3.035.841 4.679 3.58 5.935 1.419.426 1.067 4.267-.532 2.484-.235-.204-.61-.241-.915-.369-5.824-1.27-4.192-7.064-6.025-5.966-3.499 2.08-5.658-.403-4.167-3.933.25-1.628.041-1.797-1.445-1.221-7.4 1.864 4.865-7.2 4.105 1.059ZM339.225 257.077c-3.813 2.318 4.906 2.205 1.635 5.534-2.57 1.623-3.229 3.483-2.587 6.432.512 1.392-2.765 3.417-2.301 1.065.022-.311-.174-.634-.255-.955-2.483-5.43 3.121-7.6 1.144-8.41-3.761-1.555-3.075-4.776.638-5.701 1.449-.776 1.458-1.046.106-1.891-5.93-4.811 8.667-.423 1.62 3.926Z" clip-rule="evenodd"/><path fill="#11A753" fill-rule="evenodd" d="M252.652 256.589c10.495 2.113 15.676 2.743 3.874 8.499 7.576 1.985 9.651 5.603 1.015 8.376 1.16.961 2.575 1.555 3.813 2.407 1.909 1.104-.188 3.856-1.874 2.628-3.414-1.669-9.055-5.451-3.009-7.957.59-.597 3.822-.956 2.332-1.781-2.27-1.522-6.596-.651-7.473-3.681.188-1.979 6.434-3.395 8.219-4.534-1.596-1.056-10.009-1.408-6.897-3.957ZM447.46 327.268c4.457 9.753 6.991 14.325-4.589 8.133 2.845 7.31 1.142 11.117-6.17 5.742-.095 1.506.256 3.002.295 4.506.23 2.197-3.224 2.112-3.223.023-.656-3.748-.914-10.545 4.66-7.112.829.127 3.017 2.537 2.808.845-.104-2.736-3.348-5.733-1.416-8.224 1.71-1.009 6.521 3.225 8.49 4.004-.085-1.914-4.741-8.944-.855-7.917Z" clip-rule="evenodd"/><path fill="#C4F3D9" fill-rule="evenodd" d="M92.746 356.312c1.524 5.252 10.222.923 6.395-3.03-2.237-3.323-7.227-.717-6.395 3.03Zm-2.068-.062c-.522-7.632 10.645-9.118 11.729-1.369.148 7.303-10.73 9.255-11.729 1.369ZM199.859 252.014c1.523 5.252 10.221.923 6.395-3.03-2.238-3.323-7.227-.716-6.395 3.03Zm-2.068-.062c-.523-7.632 10.644-9.118 11.728-1.368.148 7.302-10.729 9.254-11.728 1.368ZM373.665 248.977c1.523 5.251 10.221.923 6.395-3.03-2.238-3.324-7.227-.717-6.395 3.03Zm-2.068-.063c-.523-7.632 10.644-9.118 11.728-1.368.148 7.303-10.729 9.255-11.728 1.368Z" clip-rule="evenodd"/><path fill="#FFE5C0" fill-rule="evenodd" d="M218.671 299.373c-.575 2.189-3.958 3.336-1.642 5.58 1.575 1.179 1.866 5.313-.944 3.926-3.325-2.8-2.954-.21-5.688 1.103-3.03.49-1.585-2.891-.522-4.221 1.345-1.862-1.909-3.019-1.997-5.115.062-2.095 3.045-1.052 3.954.126 2.199 2.125 5.022-5.584 6.839-1.399ZM436.35 260.813c-.575 2.189-3.957 3.337-1.642 5.58 1.576 1.18 1.866 5.313-.944 3.927-3.325-2.8-2.954-.21-5.688 1.102-3.029.49-1.585-2.891-.521-4.22 1.344-1.863-1.91-3.02-1.997-5.115.062-2.096 3.045-1.053 3.954.125 2.199 2.125 5.021-5.584 6.838-1.399Z" clip-rule="evenodd"/><path stroke="#F9BE01" stroke-linecap="round" stroke-width="2" d="M509.661 200.283c.89-8.608 2.876-17.754 3.829-26.387 1.674-15.177.365-29.854-2.663-41.863-2.46-9.753-8.695-17.26-14.45-23.908-7.386-8.531-15.448-16.43-24.737-22.815-19.166-13.174-40.219-23.709-64.372-30.202-27.717-7.45-58.719-9.827-85.609-18.527-17.553-5.68-31.805-15.548-44.217-27.61-10.765-10.46-21.383-21.92-26.069-38.318-1.922-6.727-3.055-14.102-2.602-22.502.092-1.716-.095-5.08.842-6.923"/></svg>