<svg viewBox="0 0 481 457" fill="none" xmlns="http://www.w3.org/2000/svg">
<path d="M-2.85647 412.23C6.39252 414.318 15.3288 417.504 24.5533 419.654C40.7698 423.433 58.9605 424.366 75.52 423.311C88.9694 422.454 103.038 417.76 115.697 413.386C131.943 407.772 148.033 401.437 163.411 393.741C195.143 377.86 225.421 359.84 253.653 338.346C286.051 313.681 315.359 285.221 348.501 261.508C370.136 246.028 393.816 234.23 418.47 224.463C439.852 215.992 462.272 207.804 485.355 205.851C494.826 205.05 504.372 205.078 513.754 206.729C515.67 207.066 519.743 207.385 521.084 208.526" stroke="#007AFF" stroke-width="2" stroke-linecap="round"/>
<path d="M519.164 196.247C520.069 187.512 522.089 178.23 523.058 169.469C524.761 154.068 523.43 139.174 520.35 126.987C517.848 117.089 511.508 109.472 505.656 102.725C498.145 94.0677 489.946 86.0514 480.501 79.5728C461.01 66.2041 439.601 55.5129 415.039 48.9239C386.853 41.3628 355.327 38.9514 327.983 30.1219C310.132 24.3582 295.639 14.344 283.017 2.10427C272.071 -8.51081 261.273 -20.1408 256.508 -36.7811C254.553 -43.6084 253.401 -51.0922 253.861 -59.6168C253.955 -61.3578 253.765 -64.7716 254.718 -66.6417" stroke="#007AFF" stroke-width="2" stroke-linecap="round"/>
</svg>
