<svg xmlns="http://www.w3.org/2000/svg" viewBox="0 0 116 115" fill="none"><path fill="#000" d="M32.021 0h-3.485v3.485h3.485V0ZM35.507 0h-3.485v3.485h3.485V0Z"/><path fill="#000" d="M38.991 0h-3.485v3.485h3.485V0ZM45.96 0h-3.484v3.485h3.485V0ZM52.93 0h-3.484v3.485h3.484V0ZM56.416 0H52.93v3.485h3.485V0Z"/><path fill="#000" d="M59.9 0h-3.485v3.485H59.9V0ZM63.385 0H59.9v3.485h3.485V0ZM66.87 0h-3.485v3.485h3.485V0ZM77.324 0H73.84v3.485h3.484V0ZM80.81 0h-3.486v3.485h3.485V0Z"/><path fill="#000" d="M84.294 0h-3.485v3.485h3.485V0ZM35.507 3.485h-3.485V6.97h3.485V3.485Z"/><path fill="#000" d="M38.991 3.485h-3.485V6.97h3.485V3.485Z"/><path fill="#000" d="M42.476 3.485H38.99V6.97h3.485V3.485ZM45.96 3.485h-3.484V6.97h3.485V3.485ZM59.9 3.485h-3.485V6.97H59.9V3.485ZM63.385 3.485H59.9V6.97h3.485V3.485ZM70.355 3.485H66.87V6.97h3.485V3.485ZM77.324 3.485H73.84V6.97h3.484V3.485ZM80.81 3.485h-3.486V6.97h3.485V3.485ZM87.778 3.485h-3.484V6.97h3.484V3.485ZM35.507 6.97h-3.485v3.485h3.485V6.97ZM42.476 6.97H38.99v3.485h3.485V6.97ZM49.445 6.97H45.96v3.485h3.485V6.97ZM56.416 6.97H52.93v3.485h3.485V6.97ZM70.355 6.97H66.87v3.485h3.485V6.97ZM73.84 6.97h-3.485v3.485h3.485V6.97ZM80.81 6.97h-3.486v3.485h3.485V6.97ZM87.778 6.97h-3.484v3.485h3.484V6.97ZM32.021 10.455h-3.485v3.484h3.485v-3.484ZM35.507 10.455h-3.485v3.484h3.485v-3.484Z"/><path fill="#000" d="M38.991 10.455h-3.485v3.484h3.485v-3.484Z"/><path fill="#000" d="M42.476 10.455H38.99v3.484h3.485v-3.484ZM45.96 10.455h-3.484v3.484h3.485v-3.484ZM52.93 10.455h-3.484v3.484h3.484v-3.484ZM63.385 10.455H59.9v3.484h3.485v-3.484ZM66.87 10.455h-3.485v3.484h3.485v-3.484ZM70.355 10.455H66.87v3.484h3.485v-3.484ZM73.84 10.455h-3.485v3.484h3.485v-3.484ZM77.324 10.455H73.84v3.484h3.484v-3.484ZM32.021 13.94h-3.485v3.484h3.485V13.94ZM35.507 13.94h-3.485v3.484h3.485V13.94ZM42.476 13.94H38.99v3.484h3.485V13.94ZM49.445 13.94H45.96v3.484h3.485V13.94ZM52.93 13.94h-3.484v3.484h3.484V13.94ZM63.385 13.94H59.9v3.484h3.485V13.94ZM66.87 13.94h-3.485v3.484h3.485V13.94ZM70.355 13.94H66.87v3.484h3.485V13.94ZM73.84 13.94h-3.485v3.484h3.485V13.94ZM87.778 13.94h-3.484v3.484h3.484V13.94ZM32.021 17.424h-3.485v3.485h3.485v-3.485ZM35.507 17.424h-3.485v3.485h3.485v-3.485Z"/><path fill="#000" d="M38.991 17.424h-3.485v3.485h3.485v-3.485Z"/><path fill="#000" d="M42.476 17.424H38.99v3.485h3.485v-3.485ZM49.445 17.424H45.96v3.485h3.485v-3.485ZM59.9 17.424h-3.485v3.485H59.9v-3.485ZM63.385 17.424H59.9v3.485h3.485v-3.485ZM70.355 17.424H66.87v3.485h3.485v-3.485ZM80.81 17.424h-3.486v3.485h3.485v-3.485ZM87.778 17.424h-3.484v3.485h3.484v-3.485ZM32.021 20.91h-3.485v3.484h3.485v-3.485ZM38.991 20.91h-3.485v3.484h3.485v-3.485ZM45.96 20.91h-3.484v3.484h3.485v-3.485ZM52.93 20.91h-3.484v3.484h3.484v-3.485ZM59.9 20.91h-3.485v3.484H59.9v-3.485ZM66.87 20.91h-3.485v3.484h3.485v-3.485ZM73.84 20.91h-3.485v3.484h3.485v-3.485ZM80.81 20.91h-3.486v3.484h3.485v-3.485ZM87.778 20.91h-3.484v3.484h3.484v-3.485ZM32.021 24.394h-3.485v3.485h3.485v-3.485ZM45.96 24.394h-3.484v3.485h3.485v-3.485ZM52.93 24.394h-3.484v3.485h3.484v-3.485ZM56.416 24.394H52.93v3.485h3.485v-3.485Z"/><path fill="#000" d="M59.9 24.394h-3.485v3.485H59.9v-3.485ZM63.385 24.394H59.9v3.485h3.485v-3.485ZM77.324 24.394H73.84v3.485h3.484v-3.485ZM4.143 27.879H.658v3.485h3.485v-3.485ZM18.082 27.879h-3.485v3.485h3.485v-3.485ZM25.052 27.879h-3.485v3.485h3.485v-3.485ZM28.537 27.879h-3.485v3.485h3.485v-3.485Z"/><path fill="#000" d="M32.021 27.879h-3.485v3.485h3.485v-3.485ZM35.507 27.879h-3.485v3.485h3.485v-3.485Z"/><path fill="#000" d="M38.991 27.879h-3.485v3.485h3.485v-3.485ZM52.93 27.879h-3.484v3.485h3.484v-3.485ZM63.385 27.879H59.9v3.485h3.485v-3.485ZM70.355 27.879H66.87v3.485h3.485v-3.485ZM73.84 27.879h-3.485v3.485h3.485v-3.485ZM77.324 27.879H73.84v3.485h3.484v-3.485ZM80.81 27.879h-3.486v3.485h3.485v-3.485ZM87.778 27.879h-3.484v3.485h3.484v-3.485ZM91.264 27.879H87.78v3.485h3.485v-3.485Z"/><path fill="#000" d="M94.749 27.879h-3.485v3.485h3.485v-3.485ZM98.234 27.879h-3.485v3.485h3.485v-3.485Z"/><path fill="#000" d="M101.718 27.879h-3.485v3.485h3.485v-3.485ZM105.203 27.879h-3.485v3.485h3.485v-3.485ZM115.658 27.879h-3.485v3.485h3.485v-3.485ZM14.597 31.364h-3.485v3.485h3.485v-3.485ZM18.082 31.364h-3.485v3.485h3.485v-3.485ZM32.021 31.364h-3.485v3.485h3.485v-3.485ZM42.476 31.364H38.99v3.485h3.485v-3.485ZM49.445 31.364H45.96v3.485h3.485v-3.485ZM52.93 31.364h-3.484v3.485h3.484v-3.485ZM56.416 31.364H52.93v3.485h3.485v-3.485Z"/><path fill="#000" d="M59.9 31.364h-3.485v3.485H59.9v-3.485ZM66.87 31.364h-3.485v3.485h3.485v-3.485ZM84.294 31.364h-3.485v3.485h3.485v-3.485ZM91.264 31.364H87.78v3.485h3.485v-3.485ZM105.203 31.364h-3.485v3.485h3.485v-3.485ZM108.688 31.364h-3.485v3.485h3.485v-3.485ZM112.173 31.364h-3.485v3.485h3.485v-3.485ZM4.143 34.849H.658v3.484h3.485V34.85Z"/><path fill="#000" d="M7.627 34.849H4.142v3.484h3.485V34.85Z"/><path fill="#000" d="M11.112 34.849H7.627v3.484h3.485V34.85ZM21.567 34.849h-3.485v3.484h3.485V34.85ZM25.052 34.849h-3.485v3.484h3.485V34.85ZM28.537 34.849h-3.485v3.484h3.485V34.85Z"/><path fill="#000" d="M32.021 34.849h-3.485v3.484h3.485V34.85ZM38.991 34.849h-3.485v3.484h3.485V34.85Z"/><path fill="#000" d="M42.476 34.849H38.99v3.484h3.485V34.85ZM45.96 34.849h-3.484v3.484h3.485V34.85ZM56.416 34.849H52.93v3.484h3.485V34.85Z"/><path fill="#000" d="M59.9 34.849h-3.485v3.484H59.9V34.85ZM63.385 34.849H59.9v3.484h3.485V34.85ZM77.324 34.849H73.84v3.484h3.484V34.85ZM80.81 34.849h-3.486v3.484h3.485V34.85Z"/><path fill="#000" d="M84.294 34.849h-3.485v3.484h3.485V34.85ZM87.778 34.849h-3.484v3.484h3.484V34.85ZM91.264 34.849H87.78v3.484h3.485V34.85ZM105.203 34.849h-3.485v3.484h3.485V34.85ZM112.173 34.849h-3.485v3.484h3.485V34.85ZM18.082 38.333h-3.485v3.485h3.485v-3.485ZM35.507 38.333h-3.485v3.485h3.485v-3.485Z"/><path fill="#000" d="M38.991 38.333h-3.485v3.485h3.485v-3.485Z"/><path fill="#000" d="M42.476 38.333H38.99v3.485h3.485v-3.485ZM52.93 38.333h-3.484v3.485h3.484v-3.485ZM63.385 38.333H59.9v3.485h3.485v-3.485ZM66.87 38.333h-3.485v3.485h3.485v-3.485ZM70.355 38.333H66.87v3.485h3.485v-3.485ZM73.84 38.333h-3.485v3.485h3.485v-3.485ZM77.324 38.333H73.84v3.485h3.484v-3.485ZM84.294 38.333h-3.485v3.485h3.485v-3.485ZM94.749 38.333h-3.485v3.485h3.485v-3.485ZM112.173 38.333h-3.485v3.485h3.485v-3.485ZM7.627 41.818H4.142v3.485h3.485v-3.485Z"/><path fill="#000" d="M11.112 41.818H7.627v3.485h3.485v-3.485ZM14.597 41.818h-3.485v3.485h3.485v-3.485ZM18.082 41.818h-3.485v3.485h3.485v-3.485ZM25.052 41.818h-3.485v3.485h3.485v-3.485ZM28.537 41.818h-3.485v3.485h3.485v-3.485ZM49.445 41.818H45.96v3.485h3.485v-3.485ZM52.93 41.818h-3.484v3.485h3.484v-3.485ZM56.416 41.818H52.93v3.485h3.485v-3.485ZM66.87 41.818h-3.485v3.485h3.485v-3.485ZM73.84 41.818h-3.485v3.485h3.485v-3.485ZM87.778 41.818h-3.484v3.485h3.484v-3.485ZM94.749 41.818h-3.485v3.485h3.485v-3.485ZM98.234 41.818h-3.485v3.485h3.485v-3.485Z"/><path fill="#000" d="M101.718 41.818h-3.485v3.485h3.485v-3.485ZM105.203 41.818h-3.485v3.485h3.485v-3.485ZM112.173 41.818h-3.485v3.485h3.485v-3.485ZM115.658 41.818h-3.485v3.485h3.485v-3.485ZM11.112 45.303H7.627v3.485h3.485v-3.485ZM21.567 45.303h-3.485v3.485h3.485v-3.485ZM28.537 45.303h-3.485v3.485h3.485v-3.485ZM35.507 45.303h-3.485v3.485h3.485v-3.485Z"/><path fill="#000" d="M38.991 45.303h-3.485v3.485h3.485v-3.485Z"/><path fill="#000" d="M42.476 45.303H38.99v3.485h3.485v-3.485ZM49.445 45.303H45.96v3.485h3.485v-3.485ZM59.9 45.303h-3.485v3.485H59.9v-3.485ZM70.355 45.303H66.87v3.485h3.485v-3.485ZM77.324 45.303H73.84v3.485h3.484v-3.485ZM80.81 45.303h-3.486v3.485h3.485v-3.485Z"/><path fill="#000" d="M84.294 45.303h-3.485v3.485h3.485v-3.485ZM105.203 45.303h-3.485v3.485h3.485v-3.485ZM108.688 45.303h-3.485v3.485h3.485v-3.485ZM4.143 48.788H.658v3.485h3.485v-3.485Z"/><path fill="#000" d="M7.627 48.788H4.142v3.485h3.485v-3.485ZM18.082 48.788h-3.485v3.485h3.485v-3.485ZM21.567 48.788h-3.485v3.485h3.485v-3.485ZM25.052 48.788h-3.485v3.485h3.485v-3.485ZM38.991 48.788h-3.485v3.485h3.485v-3.485ZM45.96 48.788h-3.484v3.485h3.485v-3.485Z"/><path fill="#000" d="M49.445 48.788H45.96v3.485h3.485v-3.485ZM52.93 48.788h-3.484v3.485h3.484v-3.485ZM59.9 48.788h-3.485v3.485H59.9v-3.485ZM63.385 48.788H59.9v3.485h3.485v-3.485ZM66.87 48.788h-3.485v3.485h3.485v-3.485ZM70.355 48.788H66.87v3.485h3.485v-3.485ZM84.294 48.788h-3.485v3.485h3.485v-3.485ZM91.264 48.788H87.78v3.485h3.485v-3.485Z"/><path fill="#000" d="M94.749 48.788h-3.485v3.485h3.485v-3.485ZM105.203 48.788h-3.485v3.485h3.485v-3.485ZM112.173 48.788h-3.485v3.485h3.485v-3.485ZM4.143 52.273H.658v3.485h3.485v-3.485ZM18.082 52.273h-3.485v3.485h3.485v-3.485ZM21.567 52.273h-3.485v3.485h3.485v-3.485ZM32.021 52.273h-3.485v3.485h3.485v-3.485ZM42.476 52.273H38.99v3.485h3.485v-3.485ZM45.96 52.273h-3.484v3.485h3.485v-3.485ZM52.93 52.273h-3.484v3.485h3.484v-3.485ZM63.385 52.273H59.9v3.485h3.485v-3.485ZM66.87 52.273h-3.485v3.485h3.485v-3.485ZM70.355 52.273H66.87v3.485h3.485v-3.485ZM73.84 52.273h-3.485v3.485h3.485v-3.485ZM77.324 52.273H73.84v3.485h3.484v-3.485ZM80.81 52.273h-3.486v3.485h3.485v-3.485Z"/><path fill="#000" d="M84.294 52.273h-3.485v3.485h3.485v-3.485ZM91.264 52.273H87.78v3.485h3.485v-3.485Z"/><path fill="#000" d="M94.749 52.273h-3.485v3.485h3.485v-3.485ZM98.234 52.273h-3.485v3.485h3.485v-3.485ZM7.627 55.758H4.142v3.484h3.485v-3.484Z"/><path fill="#000" d="M11.112 55.758H7.627v3.484h3.485v-3.484ZM25.052 55.758h-3.485v3.484h3.485v-3.484ZM28.537 55.758h-3.485v3.484h3.485v-3.484ZM35.507 55.758h-3.485v3.484h3.485v-3.484Z"/><path fill="#000" d="M38.991 55.758h-3.485v3.484h3.485v-3.484Z"/><path fill="#000" d="M42.476 55.758H38.99v3.484h3.485v-3.484ZM52.93 55.758h-3.484v3.484h3.484v-3.484ZM56.416 55.758H52.93v3.484h3.485v-3.484ZM63.385 55.758H59.9v3.484h3.485v-3.484ZM73.84 55.758h-3.485v3.484h3.485v-3.484ZM77.324 55.758H73.84v3.484h3.484v-3.484ZM80.81 55.758h-3.486v3.484h3.485v-3.484Z"/><path fill="#000" d="M84.294 55.758h-3.485v3.484h3.485v-3.484ZM87.778 55.758h-3.484v3.484h3.484v-3.484ZM94.749 55.758h-3.485v3.484h3.485v-3.484ZM101.718 55.758h-3.485v3.484h3.485v-3.484ZM112.173 55.758h-3.485v3.484h3.485v-3.484ZM7.627 59.242H4.142v3.485h3.485v-3.485Z"/><path fill="#000" d="M11.112 59.242H7.627v3.485h3.485v-3.485ZM14.597 59.242h-3.485v3.485h3.485v-3.485ZM18.082 59.242h-3.485v3.485h3.485v-3.485ZM35.507 59.242h-3.485v3.485h3.485v-3.485Z"/><path fill="#000" d="M38.991 59.242h-3.485v3.485h3.485v-3.485ZM56.416 59.242H52.93v3.485h3.485v-3.485ZM63.385 59.242H59.9v3.485h3.485v-3.485ZM66.87 59.242h-3.485v3.485h3.485v-3.485ZM73.84 59.242h-3.485v3.485h3.485v-3.485ZM77.324 59.242H73.84v3.485h3.484v-3.485ZM84.294 59.242h-3.485v3.485h3.485v-3.485ZM91.264 59.242H87.78v3.485h3.485v-3.485ZM105.203 59.242h-3.485v3.485h3.485v-3.485ZM108.688 59.242h-3.485v3.485h3.485v-3.485ZM7.627 62.727H4.142v3.485h3.485v-3.485Z"/><path fill="#000" d="M11.112 62.727H7.627v3.485h3.485v-3.485ZM14.597 62.727h-3.485v3.485h3.485v-3.485ZM25.052 62.727h-3.485v3.485h3.485v-3.485ZM28.537 62.727h-3.485v3.485h3.485v-3.485Z"/><path fill="#000" d="M32.021 62.727h-3.485v3.485h3.485v-3.485ZM49.445 62.727H45.96v3.485h3.485v-3.485ZM56.416 62.727H52.93v3.485h3.485v-3.485ZM66.87 62.727h-3.485v3.485h3.485v-3.485ZM73.84 62.727h-3.485v3.485h3.485v-3.485ZM84.294 62.727h-3.485v3.485h3.485v-3.485ZM91.264 62.727H87.78v3.485h3.485v-3.485ZM98.234 62.727h-3.485v3.485h3.485v-3.485ZM105.203 62.727h-3.485v3.485h3.485v-3.485ZM7.627 66.212H4.142v3.485h3.485v-3.485ZM18.082 66.212h-3.485v3.485h3.485v-3.485ZM28.537 66.212h-3.485v3.485h3.485v-3.485ZM35.507 66.212h-3.485v3.485h3.485v-3.485ZM49.445 66.212H45.96v3.485h3.485v-3.485ZM52.93 66.212h-3.484v3.485h3.484v-3.485ZM59.9 66.212h-3.485v3.485H59.9v-3.485ZM70.355 66.212H66.87v3.485h3.485v-3.485ZM80.81 66.212h-3.486v3.485h3.485v-3.485Z"/><path fill="#000" d="M84.294 66.212h-3.485v3.485h3.485v-3.485ZM87.778 66.212h-3.484v3.485h3.484v-3.485ZM91.264 66.212H87.78v3.485h3.485v-3.485ZM98.234 66.212h-3.485v3.485h3.485v-3.485ZM112.173 66.212h-3.485v3.485h3.485v-3.485ZM7.627 69.697H4.142v3.485h3.485v-3.485Z"/><path fill="#000" d="M11.112 69.697H7.627v3.485h3.485v-3.485ZM25.052 69.697h-3.485v3.485h3.485v-3.485ZM35.507 69.697h-3.485v3.485h3.485v-3.485Z"/><path fill="#000" d="M38.991 69.697h-3.485v3.485h3.485v-3.485Z"/><path fill="#000" d="M42.476 69.697H38.99v3.485h3.485v-3.485ZM45.96 69.697h-3.484v3.485h3.485v-3.485ZM52.93 69.697h-3.484v3.485h3.484v-3.485ZM56.416 69.697H52.93v3.485h3.485v-3.485Z"/><path fill="#000" d="M59.9 69.697h-3.485v3.485H59.9v-3.485ZM70.355 69.697H66.87v3.485h3.485v-3.485ZM80.81 69.697h-3.486v3.485h3.485v-3.485Z"/><path fill="#000" d="M84.294 69.697h-3.485v3.485h3.485v-3.485ZM94.749 69.697h-3.485v3.485h3.485v-3.485ZM101.718 69.697h-3.485v3.485h3.485v-3.485ZM105.203 69.697h-3.485v3.485h3.485v-3.485ZM115.658 69.697h-3.485v3.485h3.485v-3.485ZM4.143 73.182H.658v3.485h3.485v-3.485Z"/><path fill="#000" d="M7.627 73.182H4.142v3.485h3.485v-3.485Z"/><path fill="#000" d="M11.112 73.182H7.627v3.485h3.485v-3.485ZM14.597 73.182h-3.485v3.485h3.485v-3.485ZM28.537 73.182h-3.485v3.485h3.485v-3.485Z"/><path fill="#000" d="M32.021 73.182h-3.485v3.485h3.485v-3.485ZM38.991 73.182h-3.485v3.485h3.485v-3.485ZM49.445 73.182H45.96v3.485h3.485v-3.485ZM52.93 73.182h-3.484v3.485h3.484v-3.485ZM63.385 73.182H59.9v3.485h3.485v-3.485ZM66.87 73.182h-3.485v3.485h3.485v-3.485ZM70.355 73.182H66.87v3.485h3.485v-3.485ZM73.84 73.182h-3.485v3.485h3.485v-3.485ZM84.294 73.182h-3.485v3.485h3.485v-3.485ZM87.778 73.182h-3.484v3.485h3.484v-3.485ZM91.264 73.182H87.78v3.485h3.485v-3.485ZM98.234 73.182h-3.485v3.485h3.485v-3.485ZM112.173 73.182h-3.485v3.485h3.485v-3.485ZM11.112 76.667H7.627v3.484h3.485v-3.484ZM14.597 76.667h-3.485v3.484h3.485v-3.484ZM18.082 76.667h-3.485v3.484h3.485v-3.484ZM25.052 76.667h-3.485v3.484h3.485v-3.484ZM32.021 76.667h-3.485v3.484h3.485v-3.484ZM35.507 76.667h-3.485v3.484h3.485v-3.484ZM52.93 76.667h-3.484v3.484h3.484v-3.484ZM56.416 76.667H52.93v3.484h3.485v-3.484ZM63.385 76.667H59.9v3.484h3.485v-3.484ZM66.87 76.667h-3.485v3.484h3.485v-3.484ZM73.84 76.667h-3.485v3.484h3.485v-3.484ZM80.81 76.667h-3.486v3.484h3.485v-3.484Z"/><path fill="#000" d="M84.294 76.667h-3.485v3.484h3.485v-3.484ZM91.264 76.667H87.78v3.484h3.485v-3.484Z"/><path fill="#000" d="M94.749 76.667h-3.485v3.484h3.485v-3.484ZM105.203 76.667h-3.485v3.484h3.485v-3.484ZM108.688 76.667h-3.485v3.484h3.485v-3.484ZM112.173 76.667h-3.485v3.484h3.485v-3.484ZM28.537 80.151h-3.485v3.485h3.485v-3.484Z"/><path fill="#000" d="M32.021 80.151h-3.485v3.485h3.485v-3.484ZM35.507 80.151h-3.485v3.485h3.485v-3.484Z"/><path fill="#000" d="M38.991 80.151h-3.485v3.485h3.485v-3.484Z"/><path fill="#000" d="M42.476 80.151H38.99v3.485h3.485v-3.484ZM56.416 80.151H52.93v3.485h3.485v-3.484Z"/><path fill="#000" d="M59.9 80.151h-3.485v3.485H59.9v-3.484ZM63.385 80.151H59.9v3.485h3.485v-3.484ZM77.324 80.151H73.84v3.485h3.484v-3.484ZM84.294 80.151h-3.485v3.485h3.485v-3.484ZM91.264 80.151H87.78v3.485h3.485v-3.484ZM98.234 80.151h-3.485v3.485h3.485v-3.484ZM105.203 80.151h-3.485v3.485h3.485v-3.484ZM4.143 83.636H.658v3.485h3.485v-3.485Z"/><path fill="#000" d="M7.627 83.636H4.142v3.485h3.485v-3.485Z"/><path fill="#000" d="M11.112 83.636H7.627v3.485h3.485v-3.485ZM14.597 83.636h-3.485v3.485h3.485v-3.485ZM18.082 83.636h-3.485v3.485h3.485v-3.485ZM21.567 83.636h-3.485v3.485h3.485v-3.485ZM25.052 83.636h-3.485v3.485h3.485v-3.485ZM28.537 83.636h-3.485v3.485h3.485v-3.485Z"/><path fill="#000" d="M32.021 83.636h-3.485v3.485h3.485v-3.485ZM38.991 83.636h-3.485v3.485h3.485v-3.485ZM45.96 83.636h-3.484v3.485h3.485v-3.485Z"/><path fill="#000" d="M49.445 83.636H45.96v3.485h3.485v-3.485ZM52.93 83.636h-3.484v3.485h3.484v-3.485ZM63.385 83.636H59.9v3.485h3.485v-3.485ZM70.355 83.636H66.87v3.485h3.485v-3.485ZM77.324 83.636H73.84v3.485h3.484v-3.485ZM80.81 83.636h-3.486v3.485h3.485v-3.485Z"/><path fill="#000" d="M84.294 83.636h-3.485v3.485h3.485v-3.485ZM87.778 83.636h-3.484v3.485h3.484v-3.485ZM91.264 83.636H87.78v3.485h3.485v-3.485Z"/><path fill="#000" d="M94.749 83.636h-3.485v3.485h3.485v-3.485ZM98.234 83.636h-3.485v3.485h3.485v-3.485Z"/><path fill="#000" d="M101.718 83.636h-3.485v3.485h3.485v-3.485ZM32.021 87.121h-3.485v3.485h3.485v-3.485ZM45.96 87.121h-3.484v3.485h3.485v-3.485ZM56.416 87.121H52.93v3.485h3.485v-3.485Z"/><path fill="#000" d="M59.9 87.121h-3.485v3.485H59.9v-3.485ZM66.87 87.121h-3.485v3.485h3.485v-3.485ZM87.778 87.121h-3.484v3.485h3.484v-3.485ZM101.718 87.121h-3.485v3.485h3.485v-3.485ZM108.688 87.121h-3.485v3.485h3.485v-3.485ZM32.021 90.606h-3.485v3.485h3.485v-3.485ZM38.991 90.606h-3.485v3.485h3.485v-3.485Z"/><path fill="#000" d="M42.476 90.606H38.99v3.485h3.485v-3.485ZM49.445 90.606H45.96v3.485h3.485v-3.485ZM56.416 90.606H52.93v3.485h3.485v-3.485Z"/><path fill="#000" d="M59.9 90.606h-3.485v3.485H59.9v-3.485ZM63.385 90.606H59.9v3.485h3.485v-3.485ZM73.84 90.606h-3.485v3.485h3.485v-3.485ZM77.324 90.606H73.84v3.485h3.484v-3.485ZM80.81 90.606h-3.486v3.485h3.485v-3.485ZM87.778 90.606h-3.484v3.485h3.484v-3.485ZM94.749 90.606h-3.485v3.485h3.485v-3.485ZM101.718 90.606h-3.485v3.485h3.485v-3.485ZM105.203 90.606h-3.485v3.485h3.485v-3.485ZM112.173 90.606h-3.485v3.485h3.485v-3.485ZM35.507 94.09h-3.485v3.486h3.485V94.09Z"/><path fill="#000" d="M38.991 94.09h-3.485v3.486h3.485V94.09Z"/><path fill="#000" d="M42.476 94.09H38.99v3.486h3.485V94.09ZM45.96 94.09h-3.484v3.486h3.485V94.09ZM63.385 94.09H59.9v3.486h3.485V94.09ZM66.87 94.09h-3.485v3.486h3.485V94.09ZM70.355 94.09H66.87v3.486h3.485V94.09ZM73.84 94.09h-3.485v3.486h3.485V94.09ZM77.324 94.09H73.84v3.486h3.484V94.09ZM87.778 94.09h-3.484v3.486h3.484V94.09ZM101.718 94.09h-3.485v3.486h3.485V94.09ZM112.173 94.09h-3.485v3.486h3.485V94.09ZM115.658 94.09h-3.485v3.486h3.485V94.09ZM32.021 97.576h-3.485v3.485h3.485v-3.485Z"/><path fill="#000" d="M49.445 97.576H45.96v3.485h3.485v-3.485ZM56.416 97.576H52.93v3.485h3.485v-3.485ZM66.87 97.576h-3.485v3.485h3.485v-3.485ZM73.84 97.576h-3.485v3.485h3.485v-3.485ZM87.778 97.576h-3.484v3.485h3.484v-3.485ZM91.264 97.576H87.78v3.485h3.485v-3.485Z"/><path fill="#000" d="M94.749 97.576h-3.485v3.485h3.485v-3.485ZM98.234 97.576h-3.485v3.485h3.485v-3.485Z"/><path fill="#000" d="M101.718 97.576h-3.485v3.485h3.485v-3.485ZM105.203 97.576h-3.485v3.485h3.485v-3.485ZM35.507 101.061h-3.485v3.484h3.485v-3.484Z"/><path fill="#000" d="M38.991 101.061h-3.485v3.484h3.485v-3.484ZM59.9 101.061h-3.485v3.484H59.9v-3.484ZM63.385 101.061H59.9v3.484h3.485v-3.484ZM70.355 101.061H66.87v3.484h3.485v-3.484ZM77.324 101.061H73.84v3.484h3.484v-3.484ZM80.81 101.061h-3.486v3.484h3.485v-3.484Z"/><path fill="#000" d="M84.294 101.061h-3.485v3.484h3.485v-3.484ZM87.778 101.061h-3.484v3.484h3.484v-3.484ZM94.749 101.061h-3.485v3.484h3.485v-3.484ZM98.234 101.061h-3.485v3.484h3.485v-3.484Z"/><path fill="#000" d="M101.718 101.061h-3.485v3.484h3.485v-3.484ZM105.203 101.061h-3.485v3.484h3.485v-3.484ZM112.173 101.061h-3.485v3.484h3.485v-3.484ZM38.991 104.545h-3.485v3.485h3.485v-3.485Z"/><path fill="#000" d="M42.476 104.545H38.99v3.485h3.485v-3.485ZM45.96 104.545h-3.484v3.485h3.485v-3.485ZM59.9 104.545h-3.485v3.485H59.9v-3.485ZM63.385 104.545H59.9v3.485h3.485v-3.485ZM70.355 104.545H66.87v3.485h3.485v-3.485ZM77.324 104.545H73.84v3.485h3.484v-3.485ZM80.81 104.545h-3.486v3.485h3.485v-3.485Z"/><path fill="#000" d="M84.294 104.545h-3.485v3.485h3.485v-3.485ZM87.778 104.545h-3.484v3.485h3.484v-3.485ZM94.749 104.545h-3.485v3.485h3.485v-3.485ZM98.234 104.545h-3.485v3.485h3.485v-3.485Z"/><path fill="#000" d="M101.718 104.545h-3.485v3.485h3.485v-3.485ZM108.688 104.545h-3.485v3.485h3.485v-3.485ZM45.96 108.03h-3.484v3.485h3.485v-3.485Z"/><path fill="#000" d="M49.445 108.03H45.96v3.485h3.485v-3.485ZM63.385 108.03H59.9v3.485h3.485v-3.485ZM66.87 108.03h-3.485v3.485h3.485v-3.485ZM70.355 108.03H66.87v3.485h3.485v-3.485ZM73.84 108.03h-3.485v3.485h3.485v-3.485ZM77.324 108.03H73.84v3.485h3.484v-3.485ZM84.294 108.03h-3.485v3.485h3.485v-3.485ZM87.778 108.03h-3.484v3.485h3.484v-3.485ZM91.264 108.03H87.78v3.485h3.485v-3.485ZM32.021 111.515h-3.485V115h3.485v-3.485ZM35.507 111.515h-3.485V115h3.485v-3.485Z"/><path fill="#000" d="M38.991 111.515h-3.485V115h3.485v-3.485Z"/><path fill="#000" d="M42.476 111.515H38.99V115h3.485v-3.485ZM45.96 111.515h-3.484V115h3.485v-3.485Z"/><path fill="#000" d="M49.445 111.515H45.96V115h3.485v-3.485ZM56.416 111.515H52.93V115h3.485v-3.485ZM63.385 111.515H59.9V115h3.485v-3.485ZM73.84 111.515h-3.485V115h3.485v-3.485ZM77.324 111.515H73.84V115h3.484v-3.485ZM80.81 111.515h-3.486V115h3.485v-3.485Z"/><path fill="#000" d="M84.294 111.515h-3.485V115h3.485v-3.485ZM87.778 111.515h-3.484V115h3.484v-3.485ZM94.749 111.515h-3.485V115h3.485v-3.485ZM115.658 111.515h-3.485V115h3.485v-3.485ZM21.393 0H.657v24.394h24.395V0h-3.66Zm0 20.735H4.317V3.659h17.076v17.076ZM111.999 0H91.263v24.394h24.395V0h-3.659Zm0 20.735H94.923V3.659h17.076v17.076ZM21.393 90.606H.657V115h24.395V90.606h-3.66Zm0 20.735H4.317V94.265h17.076v17.076Z"/><path fill="#000" d="M18.082 6.97H7.627v10.454h10.455V6.97ZM108.688 6.97H98.233v10.454h10.455V6.97ZM18.082 97.576H7.627v10.454h10.455V97.576Z"/></svg>