<svg xmlns="http://www.w3.org/2000/svg" viewBox="0 0 179 89" fill="none"><path fill="#191C1E" d="M43.98 31.813a2.977 2.977 0 0 1-1.6-.417 55.1 55.1 0 0 0-1.464-.883 4.249 4.249 0 0 1-.843-.96c-.218-.363-.407-.843-.567-1.438-.103-.353-.138-.806-.105-1.36.033-.553.114-1.11.242-1.671.126-.58.252-1.046.376-1.397.186-.547.426-1.135.719-1.766.31-.65.615-1.263.913-1.837.315-.595.563-1.07.744-1.426.122-.143.174-.213.155-.212l-.002-.028c-.008-.095.069-.338.228-.73.177-.413.33-.776.458-1.09.26-.324.401-.582.424-.774.024-.192-.016-.34-.12-.447-.043-.072.013-.21.168-.412.156-.202.394-.439.715-.71.32-.273.689-.548 1.104-.828.426-.394.845-.616 1.26-.668.43-.071.692-.006.784.196.004.056.11.067.316.032.223-.055.474-.122.753-.201.297-.1.557-.176.78-.232.086-.12.297-.222.632-.305.353-.104.763-.202 1.23-.296.248 0 .485-.009.711-.027.244-.038.441-.072.59-.103l.253-.048c.13-.048.282-.04.458.022.194.06.38.255.558.583.158.33.13.588-.083.776-.195.186-.675.356-1.442.511l-1.458.313c-.412.07-.842.16-1.29.271-.448.093-.997.24-1.646.442a5.796 5.796 0 0 0-1.135.43 2.053 2.053 0 0 0-.752.6c-.209.245-.438.595-.688 1.051-.125.105-.276.364-.453.777l-.532 1.238c-.471.777-.885 1.455-1.239 2.034-.337.558-.464.881-.381.97l.318.06c.212.041.356.058.431.052.182-.109.404-.192.665-.25.28-.06.504-.116.671-.167l2.693-.922a66.106 66.106 0 0 1 1.5-.488c.352-.122.622-.2.809-.233.248-.229.5-.286.756-.173.274.111.498.303.671.574.11.2.124.38.042.539-.064.157-.289.326-.674.508-.366.18-.918.404-1.657.67l-2.91 1.053c-1.016.384-1.89.632-2.622.746-.732.114-1.094-.02-1.085-.4-.138-.065-.282.041-.431.319-.132.257-.257.609-.375 1.055-.117.446-.214.919-.29 1.418a13.69 13.69 0 0 0-.09 1.404c.013.417.065.726.157.928.184.422.41.756.675 1.002.265.226.725.408 1.382.547.379-.01.75-.01 1.11 0 .362.009.763-.098 1.201-.322 1.1-.276 1.962-.543 2.588-.8.626-.258.983-.428 1.072-.511.145-.088.237-.133.275-.136a.737.737 0 0 1 .224-.045c-.05.098-.03.106.059.023.106-.103.246-.256.42-.46.193-.205.453-.405.78-.602.327-.196.619-.352.876-.467.276-.116.427-.128.453-.035.128.18.13.445.005.797-.127.333-.373.713-.739 1.14-.367.409-.849.817-1.444 1.224-.96.607-2.017 1.06-3.172 1.359-1.153.317-2.192.522-3.115.613Zm12.964-1.58a4.646 4.646 0 0 1-1.065-.515c-.341-.24-.566-.44-.673-.603-.014-.17.006-.286.058-.347.051-.08.21-.12.475-.122.283-.023.74-.02 1.368.007.227-.018.509-.059.846-.123.337-.064.644-.145.921-.243.296-.099.46-.206.488-.323.095-.007.111-.037.05-.089a2.136 2.136 0 0 0-.215-.211.51.51 0 0 1-.262-.065c-.1-.068-.188-.1-.264-.094-.007-.094-.11-.19-.307-.29a2.22 2.22 0 0 0-.562-.269 43.292 43.292 0 0 1-1.146-.822c-.324-.26-.452-.44-.384-.54l-.008-.114-.003-.028c-.132.01-.297-.167-.496-.531-.18-.366-.282-.7-.306-1.002-.017-.227.027-.515.133-.865.105-.37.256-.752.453-1.147.198-.395.41-.725.636-.99.315-.347.714-.72 1.196-1.119.48-.417.956-.787 1.425-1.108.486-.342.896-.573 1.228-.694.33-.159.636-.25.92-.271a1.55 1.55 0 0 1 .808.136c.196.08.377.208.542.386.184.156.339.325.467.505.145.16.242.304.29.433.017.226.018.483.002.769a3.556 3.556 0 0 1-.115.721c-.04.213-.127.324-.26.334l-.082.035c-.038.003-.053.052-.046.146.015.189-.11.417-.375.684-.34.274-.64.45-.9.526-.26.059-.43-.032-.505-.274a.737.737 0 0 1-.128-.189c-.024-.055-.073-.08-.149-.074l-.091-.078c-.061-.052-.097-.145-.107-.277a.273.273 0 0 1 .07-.205l.076-.12c.094-.007.21-.12.344-.34.134-.238.248-.485.342-.739.112-.275.164-.46.157-.554-.009-.113-.033-.177-.072-.193-.02-.018-.106-.02-.257-.009-.256.134-.565.31-.928.528-.363.219-.708.435-1.033.65-.308.196-.531.375-.67.537a7.25 7.25 0 0 0-.123.266c-.017.02-.064.034-.14.04-.005-.076-.068-.033-.189.128-.103.141-.24.342-.41.602l-.452.776-.3.537c-.035.04-.074.157-.116.35a2.238 2.238 0 0 0-.02.486c-.058.233-.036.393.066.48.1.068.32.222.662.461.699.44 1.25.805 1.652 1.097.402.291.706.534.91.727.206.192.334.372.384.54.384.54.521.966.412 1.278-.108.313-.41.602-.901.868-.182.11-.488.21-.918.3-.43.09-.871.153-1.324.188a6.212 6.212 0 0 1-1.079.056Zm10.84-1.614a5.688 5.688 0 0 1-.939.016 1.295 1.295 0 0 1-.494-.132 3.97 3.97 0 0 1-.42-.28 4.53 4.53 0 0 0-.321-.46 2.551 2.551 0 0 0-.312-.347c-.097-.277-.163-.642-.198-1.095-.016-.455.003-.95.056-1.486.073-.538.186-1.04.34-1.509.064-.157.118-.313.163-.468l.068-.233c-.008-.095.088-.33.287-.707.218-.377.453-.776.706-1.194.271-.42.495-.723.67-.907a2.84 2.84 0 0 1 .558-.528 4.44 4.44 0 0 1 .708-.426c.202-.092.405-.174.608-.247a3.17 3.17 0 0 1 .758-.144c.264-.02.514.017.75.112.235.096.467.277.697.544.366.314.581.639.645.976.081.317.097.648.048.994-.065.385-.165.687-.3.906-.137.2-.3.299-.49.295-.19-.004-.419-.129-.685-.374a.884.884 0 0 1-.141-.36c-.01-.113.016-.276.076-.49.055-.27.034-.544-.064-.821-.097-.278-.23-.41-.4-.397-.246.02-.511.154-.796.404-.267.23-.54.517-.816.862a11.972 11.972 0 0 0-1.113 1.825c-.2.376-.361.74-.486 1.092-.16.64-.291 1.153-.394 1.54l-.126.58c.005.076.03.15.074.223a.272.272 0 0 1 .1.191c.017.227.163.396.438.507.218.117.47.173.754.17.283-.022.625-.144 1.026-.365.29-.175.558-.395.804-.661.264-.268.54-.508.828-.72.197-.148.349-.274.455-.377.125-.105.19-.12.196-.044.006.075.037.11.094.107.056-.005.12-.048.19-.13.1-.16.216-.263.346-.311a.588.588 0 0 1 .335-.083c.113-.01.172.015.176.071a.433.433 0 0 0 .147.416.864.864 0 0 1-.061.319.714.714 0 0 1-.148.296c-.085.14-.215.302-.39.486a10.02 10.02 0 0 1-.447.491l-.213.188c-.077-.013-.151.011-.223.074l-.183.214c-.14.144-.274.258-.4.344a.864.864 0 0 1-.305.11 1.365 1.365 0 0 1-.301.166c-.055.023-.08.072-.074.148-.174.203-.4.354-.678.451-.26.078-.654.137-1.183.178Zm7.126-.925a.856.856 0 0 0-.31-.318c-.12-.086-.183-.166-.19-.242a.937.937 0 0 0-.045-.224.353.353 0 0 0-.133-.246c-.103-.106-.113-.362-.03-.767.08-.425.231-.94.45-1.546.218-.624.48-1.281.788-1.97.14-.163.276-.373.408-.63.132-.258.233-.427.302-.508a.273.273 0 0 1 .07-.205c.051-.08.114-.123.19-.129l-.013-.17c-.008-.094.065-.261.217-.501.172-.241.38-.505.623-.79.243-.303.496-.59.76-.857a4.59 4.59 0 0 1 .665-.621c.376-.296.77-.488 1.18-.577.43-.09.806-.024 1.127.197a903.246 903.246 0 0 1 .793.68c.2.136.402.282.604.437l1.12.853-.4 1.456c-.188.774-.203 1.44-.046 1.998a5.22 5.22 0 0 0 .68 1.429c.11.2.314.384.612.55.317.166.609.257.876.274a.92.92 0 0 1 .438.137c.14.084.217.23.233.438a.808.808 0 0 1-.078.462c-.067.119-.193.205-.38.257-.616.124-1.213.019-1.79-.316-.558-.337-1.097-.922-1.617-1.755a4.58 4.58 0 0 1-.36-.599 6.16 6.16 0 0 1-.246-.607l-.383.57a9.52 9.52 0 0 1-.44.577c-1.236 1.464-2.327 2.47-3.272 3.018-.928.529-1.73.61-2.403.245Zm.897-1.666c.01.132.209.117.595-.046.404-.184.827-.483 1.27-.897.6-.598 1.195-1.252 1.786-1.963.61-.712 1.091-1.367 1.444-1.965l.545-1.068c-.223-.42-.453-.696-.691-.83-.22-.153-.407-.224-.558-.212-.245.019-.596.274-1.052.766-.437.49-.9 1.134-1.39 1.931-.489.799-.944 1.67-1.365 2.614-.16.393-.302.774-.425 1.145l-.159.525Zm12.61.385c-.076.006-.192-.032-.35-.115a5.706 5.706 0 0 1-.334-.259 1.11 1.11 0 0 1-.29-.433c-.03-.15-.066-.489-.107-1.018-.046-.604.026-1.265.218-1.983.19-.736.528-1.77 1.014-3.099l.782-2.055c.064-.157.121-.276.172-.356.07-.081.13-.162.18-.242l.2-.015.084-.007c.151-.012.31.071.475.248.164.158.292.338.384.54.019.245 0 .503-.055.774-.036.268-.232.683-.588 1.242-.116.218-.268.581-.457 1.09-.17.507-.279.943-.327 1.308a1.18 1.18 0 0 0-.093.264l-.163.468a3.7 3.7 0 0 1-.162.497l-.093.634 1.747-2.102c.819-.957 1.487-1.645 2.006-2.065.518-.42.94-.615 1.266-.583.325.031.618.265.88.7.148.198.257.38.327.545.087.145.15.35.19.612.039.263.05.66.035 1.194l.135 1.756c.277-.098.499-.181.664-.251.165-.089.338-.178.521-.269a3.66 3.66 0 0 1 .58-.244c.22-.093.5-.163.838-.208 0 .247-.064.518-.193.813-.131.276-.3.546-.508.809a2.895 2.895 0 0 1-.719.654 1.591 1.591 0 0 1-.775.288c-.246.02-.529-.082-.85-.304a2.208 2.208 0 0 1-.715-.77 2.558 2.558 0 0 1-.194-.67l-.105-1.359-.08-1.048c-.024-.302-.125-.38-.303-.232a5.054 5.054 0 0 0-.401.344c-.264.268-.545.574-.841.92l-.858 1.065c-.799.974-1.474 1.7-2.026 2.18-.533.479-.903.726-1.11.742Zm14.213.232c-.831.065-1.535-.193-2.111-.775-.579-.601-.895-1.374-.949-2.32a9.748 9.748 0 0 1 .229-2.212c.184-.812.447-1.592.788-2.34.34-.768.724-1.444 1.154-2.028.43-.585.891-1.01 1.384-1.276.181-.11.373-.2.577-.273.222-.075.446-.12.673-.138a2.06 2.06 0 0 1 .66.062c.231.04.425.09.582.154.331.108.589.249.773.425.185.175.359.456.521.842.085.355.133.607.144.759.012.15-.018.38-.089.69a6.385 6.385 0 0 1-.743 1.825c-.32.519-.77.972-1.348 1.359a2.009 2.009 0 0 1-.521.268 3.18 3.18 0 0 1-1.71-.01 2.009 2.009 0 0 1-.871-.587l-.216-.21-.068.233a15.302 15.302 0 0 0-.344 1.451 5.626 5.626 0 0 0-.049 1.2c.017.227.053.443.106.648.073.203.162.377.268.52a.687.687 0 0 0 .388.226c.192.023.392.027.599.01l.397-.03c.15-.03.288-.08.416-.147.312-.138.558-.28.736-.427.198-.149.395-.306.591-.474l.109-.065-.029.002c.218-.131.408-.26.569-.386l.27-.192c.076-.006.147-.06.216-.16.145-.087.336-.073.573.041.255.113.391.274.407.482-.011.095-.085.253-.22.473-.136.2-.292.393-.468.577-.157.184-.291.289-.403.317-.018.02-.081.063-.19.129a.607.607 0 0 0-.217.13l.028-.002c-.153.24-.314.367-.484.38l-.226.018c-.066.137-.299.308-.702.51a3.56 3.56 0 0 1-1.2.321Zm.794-6.33c.34-.027.625-.144.856-.352.248-.228.457-.472.627-.733.339-.539.518-1.047.538-1.523.038-.497-.045-.832-.248-1.006a.706.706 0 0 0-.318-.061c-.077-.013-.236.028-.475.122-.167.051-.393.211-.676.48-.283.27-.564.567-.843.892-.26.325-.457.596-.592.816l-.322.623c.146-.068.286-.108.418-.118.149-.03.235-.028.257.009.013.17.054.328.122.475.086.126.179.223.279.291a.653.653 0 0 0 .377.085Zm7.375 4.668c-.224.056-.472.037-.746-.056a2.251 2.251 0 0 1-.745-.426 1.52 1.52 0 0 1-.418-.623c-.106-.39-.097-.885.028-1.484.142-.619.358-1.272.647-1.96.306-.707.652-1.39 1.038-2.046.406-.659.827-1.233 1.264-1.723.454-.51.883-.866 1.285-1.069.197-.148.351-.245.462-.292a.578.578 0 0 1 .394-.06c.154.027.379.104.673.233.271.055.475.125.615.209.139.084.324.26.553.527.173.271.308.546.406.823.097.277.188.593.272.947.188.46.268.768.242.922a.7.7 0 0 1-.146.325c-.136.2-.167.298-.091.292l-.02.115c.005.057-.026.154-.091.292-.1.426-.171.868-.211 1.328-.023.438.014.796.111 1.074.183.403.476.627.878.672.403.045.795-.157 1.179-.605.196-.167.384-.314.564-.442.179-.147.274-.145.285.006l.092.078a.35.35 0 0 0 .203.041c.094-.007.153.026.178.1.044.073.052.177.024.312-.01.115-.056.251-.139.41-.262.305-.389.505-.381.6l-.105.121a7.218 7.218 0 0 1-.29.308c-.323.234-.75.372-1.278.413-.51.04-.915-.033-1.214-.219a3.488 3.488 0 0 1-.859-.788c-.254-.341-.429-.64-.525-.9l-.163-.271-.78.602c-.192.224-.403.44-.634.647-.212.207-.353.35-.423.432a.969.969 0 0 1-.182.214.276.276 0 0 1-.192.1l-.198.016-.085.006c.005.076-.082.178-.262.306a2.378 2.378 0 0 1-.601.332 2 2 0 0 1-.614.161Zm-.402-1.507c.114-.009.305-.11.576-.301.287-.213.601-.456.941-.729.358-.275.67-.546.934-.814a5.42 5.42 0 0 0 .58-.615l.339-.397a13.4 13.4 0 0 1 .416-.516 4.192 4.192 0 0 0 .782-1.685c.124-.618.068-1.089-.166-1.412-.091-.202-.194-.308-.309-.318-.115-.01-.346.074-.693.253-.216.15-.48.427-.791.831-.293.384-.609.836-.949 1.357a20 20 0 0 0-.906 1.552c-.282.535-.51 1.027-.684 1.478-.174.45-.252.798-.233 1.044.006.075.03.14.072.194l.091.078Zm22.102-.24a2.5 2.5 0 0 1-1.342.703 2.963 2.963 0 0 1-1.518-.11 3.03 3.03 0 0 1-1.297-.925 3.205 3.205 0 0 1-.732-1.367c-.137-.54-.201-1.248-.192-2.122-.001-.741.179-1.496.537-2.265a8.909 8.909 0 0 1 1.346-2.128c.559-.632 1.123-1.085 1.691-1.357.268-.21.498-.314.688-.31.208-.016.521-.021.939-.016.439.023.766.083.983.18.235.096.426.233.573.411.305.261.516.53.632.806.115.257.182.518.203.782-.044.421-.288.953-.732 1.595-.427.623-1.013 1.153-1.758 1.59a3.966 3.966 0 0 1-1.346.277c-.493.019-.908-.072-1.247-.274-.37-.123-.604-.076-.701.14-.099.198-.166.678-.203 1.44-.02.724.078 1.248.293 1.574.213.306.483.475.808.507.384.046.681.08.891.101.228.001.495-.105.802-.319.287-.212.468-.33.542-.355a.638.638 0 0 0 .161-.127l.34-.397c.122-.142.219-.245.29-.307a.354.354 0 0 1 .246-.134c.095-.007.183.034.266.122.081.07.161.12.24.152.188-.014.235.096.139.332-.077.234-.254.523-.531.867a6.323 6.323 0 0 1-1.011.934Zm-.491-6.003c.2-.11.407-.26.62-.447.213-.206.386-.42.521-.639.153-.24.223-.435.211-.586-.02-.264-.16-.472-.418-.623-.26-.17-.631-.17-1.111.001-.204.073-.429.233-.676.48a6.712 6.712 0 0 0-.71.768c-.206.282-.376.533-.512.752-.116.218-.153.345-.113.38.064.09.231.152.499.188.267.018.561.004.88-.04.339-.045.608-.123.809-.234Zm5.919 6.577c-.351.123-.65.07-.895-.158-.227-.23-.379-.597-.456-1.104-.077-.507-.067-1.116.03-1.826.077-.234.136-.457.177-.67.039-.23.053-.412.043-.544a8.68 8.68 0 0 1 .163-.84c.085-.386.178-.782.279-1.189.102-.407.198-.766.288-1.077.107-.331.177-.536.209-.614.075-.006.136-.078.183-.214.046-.137.064-.271.054-.403a1.757 1.757 0 0 1 .046-.517c.061-.194.126-.332.196-.414a.975.975 0 0 1 .032-.316.848.848 0 0 0 .061-.318.501.501 0 0 1 .039-.231.376.376 0 0 0 .068-.233c.113-.256.253-.656.42-1.201.184-.566.374-1.188.568-1.868a49.741 49.741 0 0 0 1-3.668c.116-.465.17-.745.163-.84-.012-.15.017-.267.087-.348.07-.082.18-.128.331-.14a.422.422 0 0 1 .19-.129 1.32 1.32 0 0 1 .252-.048l.122.105.366.313c.162.12.258.265.29.433.051.167.085.364.103.59.019.246.007.466-.035.659a6.484 6.484 0 0 1-.276.848l-.665 1.733c-.122.39-.254.76-.398 1.114-.145.334-.215.539-.209.614.006.076-.023.192-.087.349-.045.155-.097.35-.155.582-.064.157-.15.392-.259.704-.11.293-.228.616-.353.968a39.15 39.15 0 0 0-.274.876c-.077.234-.114.37-.111.407a.928.928 0 0 1-.011.23c.006.075-.026.153-.096.235-.075.005-.118.066-.128.18l.011.142c.014.19-.098.701-.338 1.537a231.849 231.849 0 0 1-.629 2.927c-.178.887-.247 1.596-.206 2.124.035.453.048.756.041.909-.009.134-.085.244-.231.331ZM30.521 55.937c-.54.137-1.042.147-1.507.032a2.41 2.41 0 0 1-1.168-.736c-.295-.376-.466-.866-.512-1.47-.1-.562-.085-1.219.047-1.97.13-.77.346-1.547.647-2.33.32-.785.675-1.468 1.067-2.05a18.7 18.7 0 0 1 1.037-1.334c.348-.407.668-.688.96-.844.256-.134.496-.219.722-.255.242-.057.439-.092.59-.103.308.051.64.168.996.35.373.16.568.354.586.58l.063.081.09.05c.113-.009.216.107.31.346.114.238.193.517.236.837.043.3.015.559-.082.776a2.468 2.468 0 0 1-.325.965c-.168.28-.328.425-.479.436a.932.932 0 0 0-.224.046c-.057.005-.082.054-.074.149.007.094-.047.136-.162.126a.737.737 0 0 1-.324-.145 1.102 1.102 0 0 1-.286-.377c-.007-.095.018-.258.077-.49.058-.233.11-.532.158-.896.073-.538.037-.877-.107-1.018-.145-.16-.4-.149-.767.032a5.574 5.574 0 0 0-1.274 1.21c-.379.505-.719 1.148-1.02 1.932-.301.764-.55 1.714-.748 2.85-.08.444-.098.825-.054 1.144.062.319.123.485.18.5.27.054.631.045 1.081-.028.45-.092.773-.203.972-.332.29-.175.615-.4.974-.674.357-.294.67-.556.936-.786a1.91 1.91 0 0 0 .318-.31c.122-.142.256-.257.401-.344.134-.238.256-.38.366-.428.11-.046.279-.078.506-.096.154.026.3.072.438.137.138.065.228.134.272.207.062.07.04.14-.07.205-.075.005-.12.038-.135.096l.005.056c.043.073-.03.24-.218.502a8.87 8.87 0 0 1-.678.822c-.28.307-.554.575-.82.805-.25.209-.432.318-.545.327-.19.015-.28.079-.27.192.002.038-.132.143-.404.316a8.732 8.732 0 0 1-.9.526 4.729 4.729 0 0 1-.882.383Zm8.926-.81c-.245.02-.447-.013-.605-.095a10.41 10.41 0 0 1-.54-.357c-.388-.35-.671-.689-.848-1.017-.179-.347-.252-.683-.22-1.008a.86.86 0 0 0 .023-.43l-.017-.226c-.102-.087-.134-.142-.098-.163.035-.041.068-.1.1-.18.113-.008.143-.115.09-.32-.05-.148 0-.484.15-1.009.149-.524.348-1.024.596-1.5a9.25 9.25 0 0 1 .453-.776c.202-.338.423-.669.664-.992.259-.343.494-.617.706-.824.442-.433.834-.758 1.179-.975.344-.217.72-.389 1.128-.515.408-.127.688-.196.839-.208.17-.013.408.12.715.4.448.155.777.357.987.607.228.248.39.625.486 1.13.1.563.103 1.218.009 1.966-.077.728-.452 1.66-1.124 2.794-.42.717-.814 1.26-1.185 1.631-.372.352-.819.71-1.342 1.074-.376.295-.72.521-1.03.678a4.639 4.639 0 0 1-1.116.315Zm2.488-3.214a9.222 9.222 0 0 0 .965-1.528c.248-.476.468-1.072.66-1.79.06-.213.087-.472.082-.776a4.423 4.423 0 0 0-.096-.876c-.04-.281-.119-.437-.235-.466-.237-.114-.514-.13-.83-.049-.318.063-.654.27-1.007.62a7.066 7.066 0 0 0-1.387 1.96c-.379.751-.74 1.606-1.085 2.564-.23.701-.254 1.254-.071 1.658.2.383.56.498 1.08.343.538-.175 1.18-.728 1.924-1.66Zm1.589-9.327c-.143-.122-.262-.313-.358-.571-.077-.26-.109-.428-.096-.505.012-.096.12-.295.325-.596.223-.302.483-.636.777-1 .295-.365.574-.691.837-.977.282-.288.486-.466.614-.533.198-.148.398-.135.601.039.202.155.41.377.622.664.07.166.01.38-.18.64a5.814 5.814 0 0 1-.707.797l-.902.868a3.834 3.834 0 0 0-.627.733c-.166.316-.303.508-.412.573-.09.064-.255.02-.494-.132Zm11.449 12.3c-.241.076-.452.055-.632-.064a1.017 1.017 0 0 1-.38-.484 7.799 7.799 0 0 1-.448-1.39 7.006 7.006 0 0 1-.136-1.385l.011-.6-1.037.965c-.598.616-1.19 1.07-1.775 1.364-.566.29-1.076.454-1.53.489a2.082 2.082 0 0 1-.64-.178 2.478 2.478 0 0 1-.6-.38 2.486 2.486 0 0 1-.409-.51c-.134-.256-.199-.612-.196-1.068.021-.457.097-.957.226-1.5.147-.561.333-1.108.558-1.638.242-.551.527-1.039.855-1.463.55-.993 1.177-1.62 1.878-1.884.702-.264 1.418-.215 2.148.146.507.17.817.24.928.212.131-.029.228-.255.29-.678l.157-.924c.05-.327.14-.761.27-1.303.361-1.472.68-2.627.958-3.465.296-.84.562-1.574.799-2.2.174-.45.324-.728.449-.833.142-.125.29-.184.442-.177a.834.834 0 0 1 .584.183c.181.138.33.335.444.592a.838.838 0 0 1 .12.447c.009.113-.035.278-.133.495-.21.472-.456 1.099-.738 1.88a58.48 58.48 0 0 0-.803 2.514 88.173 88.173 0 0 0-.704 2.705c-.216.89-.393 1.673-.53 2.349-.082.424-.145.961-.19 1.61a58.864 58.864 0 0 0-.045 1.998c-.006.666.002 1.264.024 1.794.04.51.084.839.133.987.143.369.212.648.207.838.015.19-.023.316-.113.38-.088.082-.236.142-.442.177Zm-5.03-2.77c.26-.078.508-.202.742-.372a8.71 8.71 0 0 0 .78-.602c.532-.478.993-.913 1.38-1.304.388-.391.62-.96.695-1.707.01-.362-.05-.642-.179-.84a1.643 1.643 0 0 0-.53-.586c-.237-.134-.553-.166-.947-.098-.376.049-.757.278-1.144.688-.42.45-.822 1.042-1.202 1.775-.361.73-.607 1.614-.736 2.65a.423.423 0 0 0 .205.44c.16.102.472.087.937-.045Zm8.928 1.014c-.162-.14-.29-.32-.383-.54a2.081 2.081 0 0 1-.11-.676 1.56 1.56 0 0 1 .099-.577.793.793 0 0 1 .03-.345c.05-.098.062-.185.037-.259-.025-.074-.016-.208.026-.4.042-.194.085-.378.129-.552a18.5 18.5 0 0 0 .341-1.11c.118-.446.227-.882.327-1.307l.257-1.103c.07-.31.113-.503.126-.58-.017-.226.124-.36.425-.403.22-.093.39-.107.51-.04.117.048.282.215.494.503.163.14.237.361.223.666-.015.305-.108.693-.281 1.162a9.153 9.153 0 0 0-.233.673c-.073.291-.12.551-.14.78a9.235 9.235 0 0 0-.232.674c-.075.272-.14.534-.196.785a2.6 2.6 0 0 0-.08.433c-.026.173-.058.366-.099.578-.042.193-.104.37-.187.528-.11.787-.236 1.253-.377 1.397-.122.142-.357.046-.706-.287Zm1.86-11.714a1.31 1.31 0 0 1-.285-.377c-.09-.183-.15-.349-.18-.498-.033-.169-.02-.255.036-.26.15-.03.317-.205.501-.523.185-.319.25-.59.194-.813a.273.273 0 0 1 .07-.205.358.358 0 0 1 .187-.157c.215-.169.43-.205.647-.108.234.077.457.26.67.547.197.345.267.644.21.895-.057.233-.24.57-.548 1.012-.254.4-.503.628-.745.685-.224.055-.476-.01-.756-.198Zm6.028 17.368c-.207.035-.531.013-.974-.067a6.637 6.637 0 0 1-.959-.238 4.104 4.104 0 0 1-.795-.708 4.934 4.934 0 0 1-.671-.945c-.157-.31-.233-.552-.227-.723.007-.153.147-.192.418-.118.29.072.489.18.595.324.186.195.4.377.64.549.242.17.48.295.713.371.236.096.419.13.55.1a1.776 1.776 0 0 0 1.106-.798c.292-.403.538-.907.738-1.511.12-.427.206-.786.26-1.075.073-.271.135-.58.184-.926.068-.347.145-.828.23-1.442.118-.694.195-1.184.23-1.471.052-.309.074-.51.067-.604-.008-.095-.04-.159-.1-.192l-.353.227a30.83 30.83 0 0 1-.789.489c-.272.173-.48.313-.623.419a6.718 6.718 0 0 1-1.534.433c-.507.077-.905.08-1.196.008-.136-.047-.288-.168-.455-.364a3.82 3.82 0 0 1-.392-.653 1.86 1.86 0 0 1-.138-.673c.007-.153.075-.386.203-.7.127-.314.273-.648.435-1.003a26.2 26.2 0 0 1 .473-.891c.15-.26.245-.39.283-.393.075-.006.111-.037.107-.094a.63.63 0 0 0 .013-.2c.013-.077.142-.249.387-.515.263-.286.616-.637 1.059-1.051.614-.656 1.173-1.165 1.677-1.527.504-.362.981-.58 1.432-.653.133.009.257.009.37 0l.198-.016.179.1c.137.047.312.11.527.187.292.092.562.27.81.536.248.246.451.544.611.892.177.328.288.662.334 1 .013.417-.05.83-.19 1.24-.12.409-.257.61-.41.602-.152-.007-.335.074-.55.242-.197.168-.292.289-.286.364a.671.671 0 0 1-.063.29c-.029.117-.138.305-.327.567-.011.096-.048.355-.11.778-.046.403-.105.863-.179 1.382-.074.519-.142.99-.204 1.412a45.04 45.04 0 0 0-.083.776c-.013.077-.047.25-.102.52-.038.25-.101.54-.19.87-.07.329-.15.639-.242.93-.033.554-.105.968-.217 1.243a3.536 3.536 0 0 1-.497.95c-.246.495-.558.89-.934 1.185-.375.314-.721.502-1.04.565Zm-1.895-9.426c.052.185.312.232.78.138a4.68 4.68 0 0 0 1.379-.592c.4-.24.764-.439 1.093-.598.33-.158.551-.366.665-.621.098-.198.178-.394.24-.589.06-.195.133-.476.22-.843a.704.704 0 0 1 .121-.266c.086-.121.166-.194.24-.218a.46.46 0 0 1 .226-.018c.096.011.212.04.349.087.091-.045.15-.145.176-.299a.921.921 0 0 0-.01-.512c-.03-.13-.138-.303-.325-.516a1.82 1.82 0 0 0-.693-.488c-.295-.129-.618-.008-.97.361-.351.37-.782.82-1.291 1.354-.404.43-.788.879-1.15 1.344a9.655 9.655 0 0 0-.87 1.293c-.197.395-.257.723-.18.983Zm12.007 2.199c-.39.106-.643.154-.758.144-.097-.03-.257-.132-.48-.304a2.607 2.607 0 0 1-.808-.507 2.529 2.529 0 0 1-.48-.675c-.095-.259-.14-.474-.135-.645.006-.666.112-1.386.318-2.162.206-.776.471-1.528.795-2.256a9.539 9.539 0 0 1 1.08-1.88c.414-.544.823-.909 1.227-1.092.366-.18.72-.265 1.063-.254.343.011.602.171.778.48.325.526.286.88-.118 1.064-.056.005-.12.038-.191.1-.073.044-.107.104-.1.18.078.031.286.025.625-.02a9.587 9.587 0 0 0 1.006-.25c.352-.122.58-.235.686-.339a.656.656 0 0 1 .249-.104c.056-.005.2.003.429.023.328.07.497.17.508.302.005.076.04.15.102.22.061.053.13.076.205.07.133.009.121.095-.037.26-.14.162-.388.39-.745.684a9.823 9.823 0 0 0-.645.506c-.071.063-.07.196.002.4.18.346.22.76.125 1.243-.096.483-.295.983-.597 1.5a7.78 7.78 0 0 1-1.14 1.485 8.62 8.62 0 0 1-1.445 1.195c-.507.325-1.014.535-1.519.632Zm-.578-1.21c.076-.005.205-.053.388-.143l.436-.262c.07-.082.157-.174.263-.277.124-.124.223-.198.297-.223a.671.671 0 0 0 .276-.107c.108-.084.257-.238.45-.462.19-.243.438-.595.744-1.056a7.77 7.77 0 0 0 .79-1.2c.18-.376.212-.71.094-1.005-.025-.075-.085-.117-.18-.129a1.357 1.357 0 0 1-.323-.117 1.094 1.094 0 0 1-.55-.1c-.159-.102-.35-.23-.57-.383l-.497-.531-.444.519c-.28.326-.565.804-.858 1.434-.276.61-.503 1.236-.682 1.877-.18.622-.275 1.114-.285 1.476.003.284.065.47.185.555a.82.82 0 0 0 .466.135Zm17.016 7.566c-.016.039-.104.008-.263-.094a2.92 2.92 0 0 1-.43-.394c-.144-.14-.21-.268-.2-.383-.096-.259-.112-.59-.048-.994.084-.386.276-.971.577-1.754.165-.317.308-.69.427-1.116.137-.43.294-.86.47-1.29.081-.178.26-.563.538-1.154.277-.592.568-1.26.87-2.006.323-.746.582-1.45.778-2.112a20.654 20.654 0 0 0-1.24 1.664c-.375.542-.73.988-1.064 1.337-.315.347-.625.523-.928.528a5.47 5.47 0 0 1-.813-.193c-.274-.112-.471-.324-.59-.638-.108-.41-.177-.936-.208-1.58-.011-.645.036-1.627.144-2.946.101-.653.148-1.15.14-1.492.01-.362-.019-.626-.089-.791a1.037 1.037 0 0 0-.346-.43c-.263-.207-.41-.395-.443-.563-.014-.189.106-.36.36-.512.39-.126.67-.176.843-.152.171.006.39.141.658.405.17.234.32.46.451.677.148.198.243.56.284 1.09.017.226.003.531-.044.915-.027.382-.056.745-.087 1.09-.013.323-.024.552-.032.686a12.372 12.372 0 0 0-.229 1.841c.002.513.05.766.144.758.355-.331.687-.7.998-1.103.328-.425.662-.897 1.002-1.418.357-.54.747-1.15 1.17-1.829.145-.334.29-.659.437-.974.147-.316.264-.638.353-.968.094-.254.192-.461.294-.621.102-.16.19-.253.264-.277.09-.045.205-.045.342.002.155.044.292.1.411.167.137.046.207.088.21.126.02.017.069.033.145.046l.231.039c.095-.008.144.017.149.074.003.037-.035.164-.114.379-.06.213-.135.457-.228.73-.076.253-.143.486-.203.7-.06.194-.08.31-.059.346.041.035.024.179-.052.432-.077.234-.17.497-.28.79-.092.293-.176.556-.253.79-.141.638-.31 1.278-.507 1.92a15.97 15.97 0 0 1-.739 1.881c-.096.236-.239.598-.429 1.088-.171.488-.343.967-.516 1.436-.152.487-.275.858-.37 1.112-.064.157-.159.402-.285.735-.106.35-.229.73-.368 1.14-.12.408-.243.788-.368 1.14-.124.37-.216.653-.277.847-.01.362-.074.633-.193.813l-.255.02-.14.04Zm12.399-1.052-.122-.104a6.16 6.16 0 0 0-.309-.318 1.09 1.09 0 0 1-.292-.462 4.525 4.525 0 0 1-.072-.564c.008-.38.108-.806.3-1.277.211-.473.447-.985.708-1.537l.459-1.062c.164-.335.244-.541.238-.617-.006-.075.023-.191.087-.348.064-.157.134-.353.211-.587.099-.197.204-.433.316-.708.13-.276.234-.531.311-.765.077-.234.114-.37.111-.408.032-.078.055-.156.068-.233a.5.5 0 0 1 .124-.238c.075-.006.11-.056.102-.15l.015-.172c-.005-.076.019-.249.074-.519.073-.29.189-.632.349-1.024.281-1.029.475-1.842.581-2.44.123-.617.179-1.134.165-1.55.003-.457.021-.724.053-.803.031-.078.111-.16.237-.246.54-.137.909.09 1.107.683.216.591.233 1.426.05 2.504-.095.235-.173.46-.233.673a1.623 1.623 0 0 0-.071.547c-.038.25-.11.55-.216.9-.107.332-.216.644-.326.938-.111.293-.19.499-.238.616-.075.006-.155.079-.239.218a.696.696 0 0 0-.083.406c.011.151-.004.323-.046.516-.042.194-.107.332-.196.415.006.075-.024.172-.091.292a.579.579 0 0 0-.09.32.273.273 0 0 1-.069.205c-.035.04-.049.108-.042.203-.146.315-.339.776-.577 1.384-.217.625-.442 1.279-.675 1.962a73.661 73.661 0 0 0-.544 1.808c-.15.525-.22.844-.211.957-.007.153-.056.261-.146.325-.07.081-.181.119-.333.111a.382.382 0 0 1-.22.103.933.933 0 0 1-.225.046Zm4.679-18.401c-.594-.315-.88-.692-.857-1.13.042-.44.399-.858 1.072-1.252.347-.18.635-.268.863-.267.247 0 .52.093.819.278.385.312.525.653.421 1.022-.088.349-.363.712-.828 1.09-.324.234-.57.367-.739.4-.151.011-.401-.035-.751-.141Zm3.746 11.277c-.352.122-.65.07-.896-.159-.226-.229-.378-.597-.455-1.104-.077-.507-.067-1.115.03-1.826.077-.234.136-.457.176-.669.04-.231.054-.413.044-.545a8.38 8.38 0 0 1 .163-.839 38.693 38.693 0 0 1 .566-2.266c.108-.332.177-.537.209-.615.076-.006.137-.077.183-.214a.98.98 0 0 0 .054-.403 1.828 1.828 0 0 1 .046-.516c.061-.195.126-.333.196-.415-.007-.094.004-.2.033-.316a.869.869 0 0 0 .061-.318.501.501 0 0 1 .039-.23.375.375 0 0 0 .067-.234c.114-.256.254-.656.421-1.201.184-.565.373-1.188.568-1.868.213-.681.409-1.352.586-2.012.177-.66.315-1.211.413-1.656.116-.465.171-.745.163-.84-.011-.15.018-.266.088-.348.069-.081.18-.128.331-.14a.42.42 0 0 1 .189-.128 1.31 1.31 0 0 1 .253-.049l.122.105.366.313a.7.7 0 0 1 .29.434c.051.167.085.363.102.59a2.28 2.28 0 0 1-.034.658 6.53 6.53 0 0 1-.277.848l-.664 1.733c-.122.39-.255.76-.399 1.114-.145.334-.214.539-.209.614.006.076-.023.192-.087.35-.045.155-.096.349-.154.581-.064.157-.15.392-.259.704-.111.294-.228.616-.353.968a34.66 34.66 0 0 0-.274.876c-.077.234-.114.37-.112.408a.928.928 0 0 1-.01.228c.005.076-.026.154-.096.236-.076.006-.119.066-.129.18l.011.142c.015.19-.098.701-.337 1.537a250.92 250.92 0 0 1-.629 2.927c-.179.888-.248 1.596-.207 2.125.035.453.049.756.042.908-.009.134-.086.244-.231.332Zm4.177-1.238a1.423 1.423 0 0 1-.384-.54 2.095 2.095 0 0 1-.109-.675c.002-.228.034-.42.098-.578a.784.784 0 0 1 .031-.344c.049-.099.061-.185.037-.26-.025-.073-.016-.207.026-.4.042-.193.085-.377.128-.551.109-.313.223-.683.342-1.11.117-.446.226-.882.326-1.307.101-.426.186-.794.257-1.103.071-.31.114-.503.127-.58-.018-.227.124-.361.424-.404.221-.093.391-.106.51-.04.118.049.283.216.495.504.163.139.237.361.222.666-.014.305-.108.692-.281 1.162a9.348 9.348 0 0 0-.233.673c-.072.29-.119.55-.139.78a9.348 9.348 0 0 0-.233.674 18.87 18.87 0 0 0-.196.785 2.64 2.64 0 0 0-.08.433 13.86 13.86 0 0 1-.098.578c-.042.193-.105.369-.188.527-.11.788-.235 1.253-.376 1.397-.122.143-.358.047-.706-.287Zm1.86-11.713a1.328 1.328 0 0 1-.285-.377 2.081 2.081 0 0 1-.181-.499c-.032-.168-.02-.255.037-.259.15-.03.317-.205.501-.524.184-.318.249-.589.194-.812a.273.273 0 0 1 .069-.205.36.36 0 0 1 .188-.157c.215-.17.43-.205.647-.108.234.077.457.26.669.547.197.345.268.643.211.895-.058.232-.241.57-.549 1.011-.254.4-.502.628-.745.685-.223.056-.475-.01-.756-.197Zm5.852 11.768a4.644 4.644 0 0 1-1.366.021 2.804 2.804 0 0 1-1.113-.398 1.975 1.975 0 0 1-.663-.831c-.153-.254-.232-.429-.24-.523-.008-.113.05-.213.177-.299a.6.6 0 0 1 .407.11c.138.066.315.138.53.216.302.224.652.33 1.05.317a2.481 2.481 0 0 0 1.117-.286c.329-.178.503-.381.523-.61a1.663 1.663 0 0 0-.115-.39 12.24 12.24 0 0 0-.244-.58c-.566-.678-.998-1.357-1.297-2.036-.282-.7-.441-1.277-.475-1.73-.027-.34.049-.707.228-1.1.177-.413.435-.766.773-1.058a6.987 6.987 0 0 1 1.059-1.051c.393-.316.79-.594 1.189-.834a7.283 7.283 0 0 1 1.127-.543c.207-.017.483-.01.828.02.344.03.585.078.723.144.213.059.428.251.643.577.213.306.332.62.357.94.01.133-.014.305-.074.52a4.403 4.403 0 0 1-.311.764 5.73 5.73 0 0 1-.209.615c-.082.177-.119.304-.113.38-.079.214-.203.328-.373.342-.152-.008-.32-.08-.501-.218a2.113 2.113 0 0 1-.414-.566c-.098-.277-.143-.502-.138-.673.005-.19.065-.395.181-.613.192-.223.285-.373.279-.449-.006-.075-.113-.105-.32-.089-.132.01-.371.115-.717.313a7.66 7.66 0 0 0-1.057.709 6.171 6.171 0 0 0-.93.87c-.332.368-.53.63-.594.787-.045.156-.055.394-.031.715.021.264.103.59.247.978.162.386.315.64.457.762l.229.381c.151.236.332.487.543.756.641 1.166.849 2.023.626 2.573-.224.549-.89.905-1.998 1.067Zm9.64.93c-.63-.046-1.073-.249-1.329-.609-.235-.342-.326-.895-.271-1.66.086-.367.127-.693.124-.978.015-.305.085-.5.212-.587l.021-.087c.034-.06.02-.115-.041-.167-.019-.246.04-.592.176-1.04.029-.116.066-.252.111-.407l.094-.264c-.106-.144-.116-.267-.028-.369.087-.101.175-.194.263-.276.106-.104.108-.208.004-.314-.043-.073-.009-.246.103-.521.11-.294.239-.598.385-.913.147-.316.242-.56.285-.735-.002-.038.035-.174.112-.408a48.998 48.998 0 0 1 .583-1.67c.113-.255.186-.422.218-.5.181-.11.101-.17-.242-.181a6.723 6.723 0 0 0-1.078.055c-.587.027-1.061.035-1.423.026-.343-.012-.633-.075-.869-.19-.247-.246-.347-.428-.299-.546.065-.138.286-.231.662-.28.244-.037.432-.061.564-.072.152-.011.34-.036.565-.072a29.7 29.7 0 0 1 1.122-.23l1.435-.226.048-.488c.132-.257.238-.484.318-.68.098-.217.176-.432.235-.645.06-.214.1-.436.12-.665l.22-.473c.145-.334.224-.673.235-1.016.198-.395.37-.75.516-1.066.146-.334.234-.54.266-.619.195-.186.33-.282.405-.288.095-.007.291.073.588.24.178.08.337.182.48.304a.928.928 0 0 1 .288.405c.047.13.001.266-.14.41a4.587 4.587 0 0 0-.137.438c-.061.195-.105.36-.133.495a4.31 4.31 0 0 0-.374.684c-.13.295-.211.596-.244.902-.127.333-.246.637-.357.912-.114.255-.208.386-.284.392.053.186.173.271.362.257.188-.034.498-.077.93-.13.356-.065.599-.122.728-.17.147-.069.318-.063.514.017.105.124.192.27.262.435a.85.85 0 0 1 .065.48.349.349 0 0 1-.205.3c-.094.008-.288.08-.581.217-.276.116-.631.2-1.063.253l-1.491.259-.407 1c-.113.256-.209.492-.287.707-.08.196-.137.314-.172.355.009.113-.044.288-.159.525l-.312.766c-.088.33-.198.632-.328.908l-.168.412c-.076.006-.109.066-.1.18.112.218.096.39-.046.516a.825.825 0 0 0-.235.274l-.074.149c.081.07.098.163.05.28a2.038 2.038 0 0 1-.142.382c.012.151-.018.372-.091.663-.054.289-.118.56-.194.813.045.338.081.554.107.647.026.093.076.127.151.102.095.011.18.005.254-.02a.943.943 0 0 1 .225-.046c.255-.134.165.538-.272 2.016-.266.495-.447.852-.545 1.068-.095.236-.191.357-.285.364Zm9.609-3.256c-.391.107-.643.155-.758.145-.097-.03-.257-.132-.48-.305a2.613 2.613 0 0 1-.808-.507 2.521 2.521 0 0 1-.479-.675c-.096-.258-.141-.473-.136-.645.006-.665.112-1.386.318-2.161a15.02 15.02 0 0 1 .795-2.256 9.574 9.574 0 0 1 1.08-1.88c.414-.545.823-.91 1.227-1.093.366-.18.72-.265 1.063-.253.342.011.602.171.778.48.325.526.286.88-.118 1.064-.056.004-.12.038-.192.1-.072.044-.106.104-.1.18.079.031.287.024.626-.021a9.603 9.603 0 0 0 1.006-.25c.352-.122.58-.235.686-.338a.654.654 0 0 1 .249-.105c.056-.004.199.004.429.024.328.07.497.17.508.302a.369.369 0 0 0 .102.22.272.272 0 0 0 .205.07c.133.008.121.095-.037.259-.14.163-.388.391-.745.685-.341.255-.556.423-.645.506-.071.063-.07.195.002.399.179.347.22.761.125 1.244-.096.482-.295.982-.597 1.5a7.794 7.794 0 0 1-1.139 1.485 8.6 8.6 0 0 1-1.447 1.195 4.32 4.32 0 0 1-1.518.631Zm-.578-1.209c.076-.005.205-.053.388-.144l.436-.262c.07-.081.157-.173.263-.277.124-.123.223-.197.297-.222a.67.67 0 0 0 .276-.107c.108-.084.257-.239.449-.463.19-.242.439-.594.745-1.055.346-.445.609-.845.791-1.201.18-.375.211-.71.093-1.005-.025-.074-.085-.117-.181-.128a1.354 1.354 0 0 1-.322-.118 1.093 1.093 0 0 1-.549-.1c-.16-.1-.35-.228-.571-.382l-.497-.531-.444.519c-.279.325-.565.803-.858 1.434-.276.61-.503 1.236-.682 1.877-.18.622-.275 1.114-.285 1.475.003.285.065.47.185.556a.82.82 0 0 0 .466.134Zm10.048-3.29c-.521.136-.89-.092-1.107-.683-.217-.59-.233-1.425-.051-2.503.096-.236.174-.46.233-.674.058-.232.082-.415.072-.547.057-.251.129-.542.218-.872.106-.35.214-.672.324-.965a6.26 6.26 0 0 1 .238-.617c.075-.006.146-.078.211-.216a.685.685 0 0 0 .111-.408 1.792 1.792 0 0 1 .046-.516c.061-.195.126-.333.196-.414a.569.569 0 0 1 .089-.32c.067-.12.097-.217.091-.293a.352.352 0 0 1 .042-.203.272.272 0 0 0 .069-.204c.147-.316.33-.776.549-1.382.237-.627.462-1.28.675-1.962.232-.683.423-1.287.573-1.811.149-.525.22-.844.211-.957a.717.717 0 0 1 .144-.353c.069-.082.181-.11.335-.083a.378.378 0 0 1 .22-.103.933.933 0 0 1 .225-.046l.093.107c.082.07.194.175.338.315a.7.7 0 0 1 .29.434c.032.168.057.366.074.592.009.36-.092.777-.302 1.25-.211.471-.446.993-.706 1.564a24.69 24.69 0 0 1-.488 1.064c-.145.334-.215.54-.209.615.006.075-.023.192-.087.349a9.273 9.273 0 0 0-.211.586 10.24 10.24 0 0 0-.316.708l-.311.765c-.079.215-.116.351-.111.408a1.107 1.107 0 0 1-.068.233.5.5 0 0 1-.124.238c-.076.006-.118.066-.129.18l.011.142c.006.076-.027.259-.1.55a5.79 5.79 0 0 1-.322.993c-.282 1.03-.475 1.852-.579 2.468a9.743 9.743 0 0 0-.168 1.523c-.002.456-.02.723-.052.802-.013.077-.092.159-.237.246Zm-1.18 4.651c-.349.16-.646.25-.891.27-.228-.002-.492-.096-.791-.281-.385-.312-.534-.642-.447-.991.105-.37.389-.743.854-1.121.324-.234.561-.367.71-.397.169-.032.429.014.78.139.594.314.87.691.828 1.132-.023.438-.371.855-1.043 1.25ZM138.472 59.268a.997.997 0 0 0-1.376-.317c-.469.293-.612.91-.32 1.38l1.696-1.063Zm35.986 13.788a.999.999 0 0 0-.64-1.26l-8.549-2.777a1.002 1.002 0 0 0-.62 1.904l7.599 2.468-2.482 7.616a.999.999 0 1 0 1.9.617l2.792-8.568ZM136.776 60.33c2.534 4.066 7.404 9.599 13.837 13.025 6.474 3.448 14.562 4.77 23.348.284l-.905-1.783c-8.095 4.134-15.485 2.936-21.501-.268-6.057-3.226-10.689-8.478-13.083-12.32l-1.696 1.062Z"/></svg>