<svg xmlns="http://www.w3.org/2000/svg" viewBox="0 0 1440 328" fill="none"><path fill="#F2FCF7" d="M0 16C0 7.163 7.163 0 16 0h1408c8.84 0 16 7.163 16 16v296c0 8.837-7.16 16-16 16H16c-8.837 0-16-7.163-16-16V16Z"/><mask id="a" width="1440" height="328" x="0" y="0" maskUnits="userSpaceOnUse" style="mask-type:alpha"><path fill="#F4F5F6" d="M0 16C0 7.163 7.163 0 16 0h1408c8.84 0 16 7.163 16 16v296c0 8.837-7.16 16-16 16H16c-8.837 0-16-7.163-16-16V16Z"/></mask><g stroke="#3BF078" stroke-linecap="round" stroke-width="2" mask="url(#a)"><path d="M703.54-163.271c9.685 14.85 17.315 30.771 26.876 45.672 16.808 26.195 40.551 51.126 64.985 71.253 19.844 16.348 46.219 28.33 70.176 38.911 30.743 13.578 62.34 25.982 94.966 35.624 67.317 19.896 135.807 35.02 206.597 42.799 81.23 8.927 163.82 8.72 244.68 19.9 52.78 7.298 102.94 22.217 151.44 41.141 42.07 16.412 85.15 34.556 119.92 61.964 14.26 11.245 27.41 23.706 37.92 38.139 2.15 2.948 7.31 8.678 7.47 11.96M-36.64-16.116c3.019 14.382 4.076 29.632 6.981 44.054 5.107 25.354 16.1 49.963 29.14 70.157 10.592 16.401 27.718 29.155 43.37 40.458 20.084 14.505 41.211 27.973 64.017 38.942 47.06 22.633 96.53 40.908 150.126 52.51 61.505 13.313 126.935 18.232 187.435 33.612 39.494 10.041 74.528 26.992 106.996 47.558 28.158 17.837 56.579 37.343 75.524 64.934 7.772 11.32 14.277 23.699 18.085 37.747.777 2.869 3.064 8.505 2.167 11.562"/></g></svg>